<svg width="972" height="175" viewBox="0 0 972 175" fill="none" xmlns="http://www.w3.org/2000/svg">
<path d="M833.562 171.344V3.34375H885.162C914.762 3.34375 936.523 10.8638 950.443 25.9038C964.523 40.9438 971.562 61.5838 971.562 87.8238C971.562 113.584 964.523 133.984 950.443 149.024C936.523 163.904 914.762 171.344 885.162 171.344H833.562ZM853.722 154.544H884.682C901.002 154.544 913.962 151.904 923.562 146.624C933.323 141.184 940.283 133.504 944.443 123.584C948.603 113.504 950.682 101.584 950.682 87.8238C950.682 73.7438 948.603 61.6638 944.443 51.5838C940.283 41.5038 933.323 33.7438 923.562 28.3038C913.962 22.8638 901.002 20.1438 884.682 20.1438H853.722V154.544Z" fill="#00D7CA"/>
<path d="M717.132 174.224C704.812 174.224 694.092 171.984 684.972 167.504C675.852 163.024 668.812 156.784 663.852 148.784C658.892 140.784 656.412 131.504 656.412 120.944H677.532C677.532 127.504 679.052 133.584 682.092 139.184C685.132 144.624 689.532 149.024 695.292 152.384C701.212 155.584 708.492 157.184 717.132 157.184C728.492 157.184 737.292 154.464 743.532 149.024C749.772 143.584 752.892 136.784 752.892 128.624C752.892 121.904 751.452 116.544 748.572 112.544C745.692 108.384 741.772 105.024 736.812 102.464C732.012 99.9039 726.412 97.6639 720.012 95.7439C713.772 93.8239 707.212 91.6639 700.332 89.2639C687.372 84.7839 677.772 79.2639 671.532 72.7039C665.292 65.9839 662.172 57.2639 662.172 46.5439C662.012 37.5839 664.092 29.6639 668.412 22.7839C672.732 15.7439 678.812 10.3039 686.652 6.46387C694.652 2.46387 704.092 0.463867 714.972 0.463867C725.692 0.463867 734.972 2.46387 742.812 6.46387C750.812 10.4639 756.972 15.9839 761.292 23.0239C765.772 30.0639 768.092 38.0639 768.252 47.0239H747.132C747.132 42.3839 745.932 37.8239 743.532 33.3439C741.132 28.7039 737.452 24.9439 732.492 22.0639C727.692 19.1839 721.612 17.7439 714.252 17.7439C705.132 17.5839 697.612 19.9039 691.692 24.7039C685.932 29.5039 683.052 36.1439 683.052 44.6239C683.052 51.8239 685.052 57.3439 689.052 61.1839C693.212 65.0239 698.972 68.2239 706.332 70.7839C713.692 73.1839 722.172 75.9839 731.772 79.1839C739.772 82.0639 746.972 85.4239 753.372 89.2639C759.772 93.1039 764.732 98.0639 768.252 104.144C771.932 110.224 773.772 117.984 773.772 127.424C773.772 135.424 771.692 143.024 767.532 150.224C763.372 157.264 757.052 163.024 748.572 167.504C740.252 171.984 729.772 174.224 717.132 174.224Z" fill="#00D7CA"/>
<path d="M535.633 174.224C524.113 174.224 513.633 171.984 504.193 167.504C494.913 162.864 487.473 155.744 481.873 146.144C476.273 136.544 473.473 124.304 473.473 109.424V3.34375H493.633V109.664C493.633 125.984 497.553 137.824 505.393 145.184C513.233 152.544 523.473 156.224 536.113 156.224C548.753 156.224 558.913 152.544 566.593 145.184C574.273 137.824 578.113 125.984 578.113 109.664V3.34375H598.273V109.424C598.273 124.304 595.473 136.544 589.873 146.144C584.273 155.744 576.753 162.864 567.313 167.504C557.873 171.984 547.313 174.224 535.633 174.224Z" fill="#00D7CA"/>
<path d="M348.775 171.344V19.9038H298.615V3.34375H419.095V19.9038H368.935V171.344H348.775Z" fill="#00D7CA"/>
<path d="M222.434 171.344V3.34375H242.594V171.344H222.434Z" fill="#00D7CA"/>
<path d="M111.912 97.173C118.152 97.173 124.331 95.9438 130.097 93.5558C135.862 91.1677 141.101 87.6674 145.513 83.2549C149.926 78.8423 153.426 73.6038 155.814 67.8385C158.202 62.0732 159.431 55.8939 159.431 49.6536C159.431 43.4133 158.202 37.2341 155.814 31.4688C153.426 25.7034 149.926 20.4649 145.513 16.0524C141.101 11.6398 135.862 8.13954 130.097 5.75147C124.331 3.3634 118.152 2.13428 111.912 2.13428L111.912 23.1448C115.393 23.1448 118.84 23.8304 122.056 25.1626C125.273 26.4948 128.195 28.4474 130.657 30.909C133.118 33.3706 135.071 36.2929 136.403 39.5091C137.735 42.7253 138.421 46.1724 138.421 49.6536C138.421 53.1348 137.735 56.5819 136.403 59.7981C135.071 63.0143 133.118 65.9366 130.657 68.3982C128.195 70.8598 125.273 72.8124 122.056 74.1446C118.84 75.4768 115.393 76.1625 111.912 76.1625L111.912 97.173Z" fill="#00D7CA"/>
<path d="M111.912 171.344C118.152 171.344 124.331 170.115 130.097 167.727C135.862 165.339 141.101 161.838 145.513 157.426C149.926 153.013 153.426 147.775 155.814 142.009C158.202 136.244 159.431 130.065 159.431 123.825C159.431 117.584 158.202 111.405 155.814 105.64C153.426 99.8743 149.926 94.6358 145.513 90.2233C141.101 85.8107 135.862 82.3104 130.097 79.9224C124.331 77.5343 118.152 76.3052 111.912 76.3052L111.912 97.3157C115.393 97.3157 118.84 98.0013 122.056 99.3335C125.273 100.666 128.195 102.618 130.657 105.08C133.118 107.541 135.071 110.464 136.403 113.68C137.735 116.896 138.421 120.343 138.421 123.825C138.421 127.306 137.735 130.753 136.403 133.969C135.071 137.185 133.118 140.108 130.657 142.569C128.195 145.031 125.273 146.983 122.056 148.316C118.84 149.648 115.393 150.333 111.912 150.333L111.912 171.344Z" fill="#00D7CA"/>
<rect x="0.306641" y="2.13428" width="97.3835" height="20.8679" fill="#00D7CA"/>
<path d="M96.5489 76.3052H115.073V97.1731H96.5489V76.3052Z" fill="#00D7CA"/>
<path d="M14.2188 76.3052H83.7784V97.1731H14.2188V76.3052Z" fill="#00D7CA"/>
<rect x="0.306641" y="150.476" width="97.3835" height="20.8679" fill="#00D7CA"/>
</svg>
