<svg width="368" height="117" viewBox="0 0 368 117" fill="none" xmlns="http://www.w3.org/2000/svg">
<path fill-rule="evenodd" clip-rule="evenodd" d="M367.796 44.5601H367.917V112.093C367.917 114.589 365.894 116.613 363.397 116.613H4.51989C2.02363 116.613 2.58914e-05 114.589 2.58914e-05 112.093V49.08C2.58914e-05 46.5837 2.02364 44.5601 4.51989 44.5601H205.46L283.87 0.686262L284.045 0.784035C284.77 0.289306 285.646 2.70818e-05 286.59 2.70818e-05H363.397C365.894 2.70818e-05 367.917 2.02364 367.917 4.51989V43.5152C367.917 43.8748 367.875 44.2247 367.796 44.5601Z" fill="#00D7CA"/>
<mask id="mask0_597_69136" style="mask-type:luminance" maskUnits="userSpaceOnUse" x="310" y="20" width="22" height="23">
<path d="M331.754 20.7914H310.233V42.3084H331.754V20.7914Z" fill="white"/>
</mask>
<g mask="url(#mask0_597_69136)">
<path fill-rule="evenodd" clip-rule="evenodd" d="M312.026 31.557C312.026 36.4844 316.072 40.5081 321.001 40.5081C325.929 40.5081 329.954 36.4844 329.954 31.557C329.954 26.6082 325.929 22.5845 321.001 22.5845C316.072 22.5845 312.026 26.6297 312.026 31.557ZM323.325 24.7362C323.863 25.812 324.315 26.8018 324.573 27.9637H327.177C326.381 26.436 324.939 25.3602 323.325 24.7362ZM319.29 27.9709H322.69C322.346 26.6153 321.7 25.4534 320.99 24.3776C320.28 25.4534 319.656 26.7014 319.29 27.9709ZM317.134 33.3501C317.134 32.7261 317.048 32.1667 317.048 31.5427C317.048 30.9187 317.048 30.3808 317.134 29.7568H314.1C313.906 30.2947 313.82 30.9187 313.82 31.5427C313.82 32.1667 313.906 32.8122 314.1 33.3501H317.134ZM318.659 38.3636C318.121 37.2877 317.669 36.2979 317.41 35.136H314.806C315.624 36.6637 317.045 37.7396 318.659 38.3636ZM318.659 24.7362C317.045 25.3602 315.71 26.436 314.806 27.9637H317.41C317.669 26.8018 318.121 25.812 318.659 24.7362ZM322.69 35.136H319.29C319.656 36.4701 320.28 37.6535 320.99 38.7294C321.722 37.6535 322.346 36.384 322.69 35.136ZM323.336 31.5427C323.336 30.9187 323.228 30.3808 323.142 29.7568H318.924C318.838 30.3808 318.752 30.9187 318.752 31.5427C318.752 32.1667 318.838 32.7046 318.924 33.3501H323.056C323.142 32.7261 323.336 32.1667 323.336 31.5427ZM327.177 35.136H324.573C324.315 36.2979 323.863 37.3738 323.325 38.3636C324.939 37.7396 326.381 36.6637 327.177 35.136ZM327.995 33.3501C328.167 32.8122 328.253 32.1667 328.253 31.5427C328.253 30.9187 328.167 30.2947 327.995 29.7568H324.939C324.939 30.3808 325.025 30.9187 325.025 31.5427C325.025 32.1667 325.025 32.7046 324.939 33.3501H327.995Z" fill="black"/>
</g>
<path fill-rule="evenodd" clip-rule="evenodd" d="M211.956 101.245H211.53V93.1093H211.956V101.245ZM212.381 93.1093H212.807V101.245H212.381V93.1093ZM213.232 101.245H214.509V93.1093H213.232V101.245ZM215.786 101.245H216.212V93.1093H215.786V101.245ZM217.915 101.245H216.638V93.1093H217.915V101.245ZM220.114 101.245V93.1093H221.391V101.245H220.114ZM222.242 101.245V93.1093H221.817V101.245H222.242ZM223.945 93.1093V101.245H222.668V93.1093H223.945ZM225.222 101.245H225.648V93.1093H225.222V101.245ZM226.073 93.1093V101.245H226.499V93.1093H226.073ZM228.698 93.1093H229.975V101.245H228.698V93.1093ZM230.401 93.1093V101.245H230.827V93.1093H230.401ZM231.252 101.245H231.678V93.1093H231.252V101.245ZM232.955 93.1093H233.38V101.245H232.955V93.1093ZM233.806 101.245H235.083V93.1093H233.806V101.245ZM237.282 93.1093V101.245H237.708V93.1093H237.282ZM238.559 101.245H238.134V93.1093H238.559V101.245ZM240.262 93.1093V101.245H238.985V93.1093H240.262ZM241.539 93.1093V101.245H241.965V93.1093H241.539ZM243.667 101.245H242.39V93.1093H243.667V101.245ZM247.144 93.1093V101.245H245.867V93.1093H247.144ZM247.995 93.1093V101.245H247.569V93.1093H247.995ZM248.421 101.245V93.1093H248.846V101.245H248.421ZM250.549 101.245V93.1093H249.272V101.245H250.549ZM252.251 93.1093H251.826V101.245H252.251V93.1093ZM255.728 93.1093H254.451V101.245H255.728V93.1093ZM256.579 101.245V93.1093H256.153V101.245H256.579ZM257.43 101.245H257.005V93.1093H257.43V101.245ZM258.707 93.1093H259.133V101.245H258.707V93.1093ZM259.559 101.245H260.836V93.1093H259.559V101.245ZM263.035 93.1093V101.245H263.461V93.1093H263.035ZM263.886 101.245V93.1093H265.163V101.245H263.886ZM266.015 101.245H265.589V93.1093H266.015V101.245ZM267.717 93.1093H267.292V101.245H267.717V93.1093ZM268.143 101.245V93.1093H269.42V101.245H268.143ZM271.619 101.245H272.045V93.1093H271.619V101.245ZM273.747 93.1093H272.47V101.245H273.747V93.1093ZM274.599 101.245H274.173V93.1093H274.599V101.245ZM275.876 101.245V93.1093H276.301V101.245H275.876ZM276.727 101.245H278.004V93.1093H276.727V101.245ZM280.203 93.1093V101.245H280.629V93.1093H280.203ZM281.055 101.245V93.1093H282.332V101.245H281.055ZM283.183 101.245V93.1093H282.757V101.245H283.183ZM285.737 93.1093V101.245H284.46V93.1093H285.737ZM286.588 101.245H286.163V93.1093H286.588V101.245ZM288.787 93.1093V101.245H289.213V93.1093H288.787ZM290.064 101.245V93.1093H289.639V101.245H290.064ZM291.767 101.245H290.49V93.1093H291.767V101.245ZM293.47 93.1093V101.245H292.193V93.1093H293.47ZM294.747 93.1093V101.245H295.172V93.1093H294.747ZM297.372 93.1093H298.649V101.245H297.372V93.1093ZM299.926 101.245V93.1093H300.351V101.245H299.926ZM301.203 93.1093H300.777V101.245H301.203V93.1093ZM302.905 93.1093V101.245H301.628V93.1093H302.905ZM303.331 93.1093V101.245H303.757V93.1093H303.331ZM305.956 93.1093H307.233V101.245H305.956V93.1093ZM308.084 93.1093V101.245H307.658V93.1093H308.084ZM308.51 101.245H309.787V93.1093H308.51V101.245ZM310.212 93.1093V101.245H310.638V93.1093H310.212ZM312.341 101.245H311.915V93.1093H312.341V101.245ZM314.54 101.245H314.966V93.1093H314.54V101.245ZM315.391 93.1093V101.245H315.817V93.1093H315.391ZM317.52 93.1093V101.245H316.243V93.1093H317.52ZM318.371 93.1093V101.245H317.945V93.1093H318.371ZM319.648 101.245H320.925V93.1093H319.648V101.245ZM323.55 93.1093H323.124V101.245H323.55V93.1093ZM325.252 93.1093H323.975V101.245H325.252V93.1093ZM326.104 101.245H325.678V93.1093H326.104V101.245ZM326.529 93.1093V101.245H326.955V93.1093H326.529ZM328.232 101.245V93.1093H329.509V101.245H328.232ZM331.708 101.245H332.134V93.1093H331.708V101.245ZM332.56 93.1093V101.245H333.837V93.1093H332.56ZM334.262 93.1093H334.688V101.245H334.262V93.1093ZM337.242 93.1093V101.245H335.965V93.1093H337.242ZM337.668 93.1093H338.093V101.245H337.668V93.1093ZM340.293 101.245H340.718V93.1093H340.293V101.245ZM341.144 101.245H341.57V93.1093H341.144V101.245ZM341.995 93.1093H343.272V101.245H341.995V93.1093ZM343.698 93.1093H344.123V101.245H343.698V93.1093ZM345.4 101.245H346.677V93.1093H345.4V101.245ZM348.877 93.1093H350.154V101.245H348.877V93.1093ZM351.005 101.245V93.1093H350.579V101.245H351.005ZM352.708 93.1093V101.245H351.431V93.1093H352.708ZM353.985 93.1093V101.245H354.41V93.1093H353.985ZM354.836 93.1093V101.245H355.262V93.1093H354.836Z" fill="black"/>
<path fill-rule="evenodd" clip-rule="evenodd" d="M11.7517 60.5663H12.9265V83.6659H11.7517V60.5663ZM15.2761 83.6659V60.5663H14.1013V83.6659H15.2761ZM19.9752 83.6659H16.4509V60.5663H19.9752V83.6659ZM24.6744 83.6659H23.4996V60.5663H24.6744V83.6659ZM25.8492 83.6659H29.3736V60.5663H25.8492V83.6659ZM34.0727 60.5663V83.6659H30.5484V60.5663H34.0727ZM35.2475 60.5663H36.4223V83.6659H35.2475V60.5663ZM37.5971 83.6659H41.1215V60.5663H37.5971V83.6659ZM45.8206 60.5663H44.6458V83.6659H45.8206V60.5663ZM48.1702 83.6659H46.9954V60.5663H48.1702V83.6659ZM49.345 83.6659V60.5663H52.8694V83.6659H49.345ZM54.0442 83.6659V60.5663H55.219V83.6659H54.0442ZM56.3937 60.5663V83.6659H57.5685V60.5663H56.3937ZM61.0929 83.6659H62.2677V60.5663H61.0929V83.6659ZM66.9669 83.6659V60.5663H63.4425V83.6659H66.9669ZM69.3164 60.5663V83.6659H68.1417V60.5663H69.3164ZM70.4912 83.6659V60.5663H71.666V83.6659H70.4912ZM76.3652 60.5663H72.8408V83.6659H76.3652V60.5663ZM79.8896 60.5663V83.6659H81.0643V60.5663H79.8896ZM82.2391 83.6659V60.5663H85.7635V83.6659H82.2391ZM86.9383 83.6659H90.4627V60.5663H86.9383V83.6659ZM92.8122 83.6659H91.6375V60.5663H92.8122V83.6659ZM95.1618 83.6659H93.987V60.5663H95.1618V83.6659ZM99.861 83.6659V60.5663H96.3366V83.6659H99.861ZM104.56 83.6659V60.5663H103.385V83.6659H104.56ZM105.735 83.6659V60.5663H109.259V83.6659H105.735ZM110.434 83.6659V60.5663H111.609V83.6659H110.434ZM113.958 83.6659V60.5663H112.784V83.6659H113.958ZM117.483 60.5663V83.6659H118.658V60.5663H117.483ZM123.357 60.5663H119.832V83.6659H123.357V60.5663ZM125.706 60.5663V83.6659H124.532V60.5663H125.706ZM130.406 60.5663V83.6659H126.881V60.5663H130.406ZM131.58 60.5663V83.6659H132.755V60.5663H131.58ZM136.279 60.5663V83.6659H137.454V60.5663H136.279ZM138.629 83.6659V60.5663H142.153V83.6659H138.629ZM144.503 83.6659V60.5663H143.328V83.6659H144.503ZM145.678 83.6659V60.5663H149.202V83.6659H145.678ZM151.552 83.6659H150.377V60.5663H151.552V83.6659ZM155.076 60.5663V83.6659H156.251V60.5663H155.076ZM160.95 60.5663V83.6659H157.426V60.5663H160.95ZM162.125 83.6659V60.5663H163.3V83.6659H162.125ZM167.999 83.6659H164.474V60.5663H167.999V83.6659ZM169.174 83.6659H170.348V60.5663H169.174V83.6659ZM173.873 83.6659V60.5663H177.397V83.6659H173.873ZM179.747 83.6659V60.5663H178.572V83.6659H179.747ZM182.096 83.6659V60.5663H180.922V83.6659H182.096ZM183.271 83.6659V60.5663H184.446V83.6659H183.271ZM189.145 60.5663H185.621V83.6659H189.145V60.5663ZM193.844 60.5663H190.32V83.6659H193.844V60.5663ZM197.369 60.5663H198.543V83.6659H197.369V60.5663Z" fill="black"/>
<path d="M292.435 23.9553L300.655 38.8709H284.215L292.435 23.9553Z" fill="black"/>
<rect x="340.798" y="24.4073" width="15.3675" height="15.3675" fill="black"/>
<path d="M12.7585 102V93.2727H16.2017C16.8636 93.2727 17.4276 93.3991 17.8935 93.652C18.3594 93.902 18.7145 94.25 18.9588 94.696C19.206 95.1392 19.3295 95.6506 19.3295 96.2301C19.3295 96.8097 19.2045 97.321 18.9545 97.7642C18.7045 98.2074 18.3423 98.5526 17.8679 98.7997C17.3963 99.0469 16.8253 99.1705 16.1548 99.1705H13.9602V97.6918H15.8565C16.2116 97.6918 16.5043 97.6307 16.7344 97.5085C16.9673 97.3835 17.1406 97.2116 17.2543 96.9929C17.3707 96.7713 17.429 96.517 17.429 96.2301C17.429 95.9403 17.3707 95.6875 17.2543 95.4716C17.1406 95.2528 16.9673 95.0838 16.7344 94.9645C16.5014 94.8423 16.206 94.7812 15.848 94.7812H14.6037V102H12.7585ZM24.5459 102.128C23.8839 102.128 23.3115 101.987 22.8286 101.706C22.3484 101.422 21.9777 101.027 21.7163 100.521C21.455 100.013 21.3243 99.4233 21.3243 98.7528C21.3243 98.0767 21.455 97.4858 21.7163 96.9801C21.9777 96.4716 22.3484 96.0767 22.8286 95.7955C23.3115 95.5114 23.8839 95.3693 24.5459 95.3693C25.2078 95.3693 25.7788 95.5114 26.2589 95.7955C26.7419 96.0767 27.1141 96.4716 27.3754 96.9801C27.6368 97.4858 27.7675 98.0767 27.7675 98.7528C27.7675 99.4233 27.6368 100.013 27.3754 100.521C27.1141 101.027 26.7419 101.422 26.2589 101.706C25.7788 101.987 25.2078 102.128 24.5459 102.128ZM24.5544 100.722C24.8555 100.722 25.107 100.636 25.3087 100.466C25.5104 100.293 25.6624 100.057 25.7646 99.7585C25.8697 99.4602 25.9223 99.1207 25.9223 98.7401C25.9223 98.3594 25.8697 98.0199 25.7646 97.7216C25.6624 97.4233 25.5104 97.1875 25.3087 97.0142C25.107 96.8409 24.8555 96.7543 24.5544 96.7543C24.2504 96.7543 23.9947 96.8409 23.7874 97.0142C23.5828 97.1875 23.428 97.4233 23.3229 97.7216C23.2206 98.0199 23.1695 98.3594 23.1695 98.7401C23.1695 99.1207 23.2206 99.4602 23.3229 99.7585C23.428 100.057 23.5828 100.293 23.7874 100.466C23.9947 100.636 24.2504 100.722 24.5544 100.722ZM31.275 102L29.4937 95.4545H31.3304L32.3446 99.8523H32.4043L33.4611 95.4545H35.2636L36.3375 99.8267H36.3929L37.3901 95.4545H39.2224L37.4455 102H35.5236L34.3986 97.8835H34.3176L33.1926 102H31.275ZM44.2097 102.128C43.5364 102.128 42.9569 101.991 42.4711 101.719C41.9881 101.443 41.616 101.054 41.3546 100.551C41.0933 100.045 40.9626 99.4474 40.9626 98.7571C40.9626 98.0838 41.0933 97.4929 41.3546 96.9844C41.616 96.4759 41.9839 96.0795 42.4583 95.7955C42.9356 95.5114 43.4952 95.3693 44.1373 95.3693C44.5691 95.3693 44.9711 95.4389 45.3433 95.5781C45.7183 95.7145 46.045 95.9205 46.3234 96.196C46.6046 96.4716 46.8234 96.8182 46.9796 97.2358C47.1359 97.6506 47.214 98.1364 47.214 98.6932V99.1918H41.687V98.0668H45.5052C45.5052 97.8054 45.4484 97.5739 45.3347 97.3722C45.2211 97.1705 45.0634 97.0128 44.8617 96.8991C44.6629 96.7827 44.4313 96.7244 44.1671 96.7244C43.8915 96.7244 43.6472 96.7884 43.4342 96.9162C43.2239 97.0412 43.0592 97.2102 42.9398 97.4233C42.8205 97.6335 42.7594 97.8679 42.7566 98.1264V99.196C42.7566 99.5199 42.8163 99.7997 42.9356 100.036C43.0577 100.271 43.2296 100.453 43.4512 100.581C43.6728 100.709 43.9356 100.773 44.2396 100.773C44.4413 100.773 44.6259 100.744 44.7935 100.688C44.9612 100.631 45.1046 100.545 45.2239 100.432C45.3433 100.318 45.4342 100.179 45.4967 100.014L47.1756 100.125C47.0904 100.528 46.9157 100.881 46.6515 101.182C46.3901 101.48 46.0521 101.713 45.6373 101.881C45.2254 102.045 44.7495 102.128 44.2097 102.128ZM49.5986 102V95.4545H51.3586V96.5966H51.4268C51.5461 96.1903 51.7464 95.8835 52.0276 95.6761C52.3089 95.4659 52.6327 95.3608 52.9992 95.3608C53.0901 95.3608 53.1881 95.3665 53.2933 95.3778C53.3984 95.3892 53.4907 95.4048 53.5702 95.4247V97.0355C53.485 97.0099 53.3671 96.9872 53.2165 96.9673C53.066 96.9474 52.9282 96.9375 52.8032 96.9375C52.5361 96.9375 52.2975 96.9957 52.0873 97.1122C51.8799 97.2259 51.7151 97.3849 51.593 97.5895C51.4736 97.794 51.414 98.0298 51.414 98.2969V102H49.5986ZM58.3871 102.128C57.7138 102.128 57.1342 101.991 56.6484 101.719C56.1655 101.443 55.7933 101.054 55.532 100.551C55.2706 100.045 55.1399 99.4474 55.1399 98.7571C55.1399 98.0838 55.2706 97.4929 55.532 96.9844C55.7933 96.4759 56.1612 96.0795 56.6357 95.7955C57.1129 95.5114 57.6726 95.3693 58.3146 95.3693C58.7464 95.3693 59.1484 95.4389 59.5206 95.5781C59.8956 95.7145 60.2223 95.9205 60.5007 96.196C60.782 96.4716 61.0007 96.8182 61.157 97.2358C61.3132 97.6506 61.3913 98.1364 61.3913 98.6932V99.1918H55.8643V98.0668H59.6825C59.6825 97.8054 59.6257 97.5739 59.5121 97.3722C59.3984 97.1705 59.2408 97.0128 59.0391 96.8991C58.8402 96.7827 58.6087 96.7244 58.3445 96.7244C58.0689 96.7244 57.8246 96.7884 57.6115 96.9162C57.4013 97.0412 57.2365 97.2102 57.1172 97.4233C56.9979 97.6335 56.9368 97.8679 56.9339 98.1264V99.196C56.9339 99.5199 56.9936 99.7997 57.1129 100.036C57.2351 100.271 57.407 100.453 57.6286 100.581C57.8501 100.709 58.1129 100.773 58.4169 100.773C58.6186 100.773 58.8033 100.744 58.9709 100.688C59.1385 100.631 59.282 100.545 59.4013 100.432C59.5206 100.318 59.6115 100.179 59.674 100.014L61.353 100.125C61.2678 100.528 61.093 100.881 60.8288 101.182C60.5675 101.48 60.2294 101.713 59.8146 101.881C59.4027 102.045 58.9268 102.128 58.3871 102.128ZM66.1879 102.107C65.6908 102.107 65.2405 101.979 64.8371 101.723C64.4365 101.464 64.1183 101.085 63.8825 100.585C63.6496 100.082 63.5331 99.4659 63.5331 98.7358C63.5331 97.9858 63.6538 97.3622 63.8953 96.8651C64.1368 96.3651 64.4578 95.9915 64.8584 95.7443C65.2618 95.4943 65.7036 95.3693 66.1837 95.3693C66.5501 95.3693 66.8555 95.4318 67.0999 95.5568C67.347 95.679 67.5459 95.8324 67.6964 96.017C67.8499 96.1989 67.9663 96.3778 68.0459 96.554H68.1013V93.2727H69.9124V102H68.1226V100.952H68.0459C67.9607 101.134 67.8399 101.314 67.6837 101.493C67.5303 101.669 67.33 101.815 67.0828 101.932C66.8385 102.048 66.5402 102.107 66.1879 102.107ZM66.7632 100.662C67.0558 100.662 67.303 100.582 67.5047 100.423C67.7092 100.261 67.8655 100.036 67.9734 99.7457C68.0842 99.456 68.1396 99.1165 68.1396 98.7273C68.1396 98.3381 68.0857 98 67.9777 97.7131C67.8697 97.4261 67.7135 97.2045 67.5089 97.0483C67.3044 96.892 67.0558 96.8139 66.7632 96.8139C66.4649 96.8139 66.2135 96.8949 66.0089 97.0568C65.8044 97.2187 65.6496 97.4432 65.5445 97.7301C65.4393 98.017 65.3868 98.3494 65.3868 98.7273C65.3868 99.108 65.4393 99.4446 65.5445 99.7372C65.6524 100.027 65.8072 100.254 66.0089 100.419C66.2135 100.581 66.4649 100.662 66.7632 100.662ZM76.6163 102V93.2727H78.4317V96.554H78.4871C78.5666 96.3778 78.6817 96.1989 78.8322 96.017C78.9857 95.8324 79.1845 95.679 79.4288 95.5568C79.676 95.4318 79.9828 95.3693 80.3493 95.3693C80.8266 95.3693 81.2669 95.4943 81.6703 95.7443C82.0737 95.9915 82.3962 96.3651 82.6376 96.8651C82.8791 97.3622 82.9999 97.9858 82.9999 98.7358C82.9999 99.4659 82.882 100.082 82.6462 100.585C82.4132 101.085 82.095 101.464 81.6916 101.723C81.291 101.979 80.8422 102.107 80.345 102.107C79.9928 102.107 79.693 102.048 79.4459 101.932C79.2016 101.815 79.0013 101.669 78.845 101.493C78.6888 101.314 78.5695 101.134 78.4871 100.952H78.4061V102H76.6163ZM78.3933 98.7273C78.3933 99.1165 78.4473 99.456 78.5553 99.7457C78.6632 100.036 78.8195 100.261 79.024 100.423C79.2285 100.582 79.4771 100.662 79.7697 100.662C80.0652 100.662 80.3152 100.581 80.5197 100.419C80.7243 100.254 80.8791 100.027 80.9842 99.7372C81.0922 99.4446 81.1462 99.108 81.1462 98.7273C81.1462 98.3494 81.0936 98.017 80.9885 97.7301C80.8834 97.4432 80.7285 97.2187 80.524 97.0568C80.3195 96.8949 80.068 96.8139 79.7697 96.8139C79.4743 96.8139 79.2243 96.892 79.0197 97.0483C78.818 97.2045 78.6632 97.4261 78.5553 97.7131C78.4473 98 78.3933 98.3381 78.3933 98.7273ZM86.321 104.455C86.0908 104.455 85.8749 104.436 85.6732 104.399C85.4744 104.365 85.3096 104.321 85.1789 104.267L85.588 102.912C85.8011 102.977 85.9928 103.013 86.1633 103.018C86.3366 103.024 86.4857 102.984 86.6107 102.899C86.7386 102.814 86.8423 102.669 86.9218 102.464L87.0283 102.188L84.6803 95.4545H86.5894L87.9445 100.261H88.0127L89.3806 95.4545H91.3025L88.7585 102.707C88.6363 103.06 88.4701 103.366 88.2599 103.628C88.0525 103.892 87.7897 104.095 87.4715 104.237C87.1533 104.382 86.7698 104.455 86.321 104.455ZM105.463 97.6364C105.463 98.5881 105.282 99.3977 104.922 100.065C104.564 100.733 104.075 101.243 103.456 101.595C102.839 101.945 102.146 102.119 101.376 102.119C100.601 102.119 99.9045 101.943 99.2881 101.591C98.6716 101.239 98.1844 100.729 97.8264 100.061C97.4685 99.3935 97.2895 98.5852 97.2895 97.6364C97.2895 96.6847 97.4685 95.875 97.8264 95.2074C98.1844 94.5398 98.6716 94.0312 99.2881 93.6818C99.9045 93.3295 100.601 93.1534 101.376 93.1534C102.146 93.1534 102.839 93.3295 103.456 93.6818C104.075 94.0312 104.564 94.5398 104.922 95.2074C105.282 95.875 105.463 96.6847 105.463 97.6364ZM103.592 97.6364C103.592 97.0199 103.5 96.5 103.315 96.0767C103.133 95.6534 102.876 95.3324 102.544 95.1136C102.211 94.8949 101.822 94.7855 101.376 94.7855C100.93 94.7855 100.541 94.8949 100.209 95.1136C99.8761 95.3324 99.6176 95.6534 99.433 96.0767C99.2511 96.5 99.1602 97.0199 99.1602 97.6364C99.1602 98.2528 99.2511 98.7727 99.433 99.196C99.6176 99.6193 99.8761 99.9403 100.209 100.159C100.541 100.378 100.93 100.487 101.376 100.487C101.822 100.487 102.211 100.378 102.544 100.159C102.876 99.9403 103.133 99.6193 103.315 99.196C103.5 98.7727 103.592 98.2528 103.592 97.6364ZM109.862 102.124C109.444 102.124 109.072 102.051 108.746 101.906C108.419 101.759 108.16 101.541 107.97 101.254C107.782 100.964 107.689 100.604 107.689 100.172C107.689 99.8082 107.755 99.5028 107.889 99.2557C108.023 99.0085 108.204 98.8097 108.434 98.6591C108.665 98.5085 108.926 98.3949 109.219 98.3182C109.514 98.2415 109.824 98.1875 110.148 98.1562C110.528 98.1165 110.835 98.0795 111.068 98.0455C111.301 98.0085 111.47 97.9545 111.575 97.8835C111.68 97.8125 111.733 97.7074 111.733 97.5682V97.5426C111.733 97.2727 111.648 97.0639 111.477 96.9162C111.309 96.7685 111.071 96.6946 110.761 96.6946C110.434 96.6946 110.175 96.767 109.981 96.9119C109.788 97.054 109.66 97.233 109.598 97.4489L107.919 97.3125C108.004 96.9148 108.172 96.571 108.422 96.2812C108.672 95.9886 108.994 95.7642 109.389 95.608C109.787 95.4489 110.247 95.3693 110.77 95.3693C111.133 95.3693 111.481 95.4119 111.814 95.4972C112.149 95.5824 112.446 95.7145 112.704 95.8935C112.966 96.0724 113.172 96.3026 113.322 96.5838C113.473 96.8622 113.548 97.196 113.548 97.5852V102H111.826V101.092H111.775C111.67 101.297 111.53 101.477 111.353 101.634C111.177 101.787 110.966 101.908 110.719 101.996C110.471 102.081 110.186 102.124 109.862 102.124ZM110.382 100.871C110.649 100.871 110.885 100.818 111.089 100.713C111.294 100.605 111.454 100.46 111.571 100.278C111.687 100.097 111.746 99.8906 111.746 99.6605V98.9659C111.689 99.0028 111.611 99.0369 111.511 99.0682C111.415 99.0966 111.305 99.1236 111.183 99.1491C111.061 99.1719 110.939 99.1932 110.817 99.2131C110.694 99.2301 110.584 99.2457 110.484 99.2599C110.271 99.2912 110.085 99.3409 109.926 99.4091C109.767 99.4773 109.643 99.5696 109.555 99.6861C109.467 99.7997 109.423 99.9418 109.423 100.112C109.423 100.359 109.513 100.548 109.692 100.679C109.873 100.807 110.103 100.871 110.382 100.871ZM121.602 97.321L119.941 97.4233C119.912 97.2812 119.851 97.1534 119.757 97.0398C119.664 96.9233 119.54 96.831 119.387 96.7628C119.236 96.6918 119.056 96.6562 118.845 96.6562C118.564 96.6562 118.327 96.7159 118.134 96.8352C117.941 96.9517 117.844 97.108 117.844 97.304C117.844 97.4602 117.906 97.5923 118.031 97.7003C118.156 97.8082 118.371 97.8949 118.675 97.9602L119.86 98.1989C120.496 98.3295 120.97 98.5398 121.283 98.8295C121.595 99.1193 121.752 99.5 121.752 99.9716C121.752 100.401 121.625 100.777 121.372 101.101C121.122 101.425 120.779 101.678 120.341 101.859C119.906 102.038 119.405 102.128 118.837 102.128C117.97 102.128 117.28 101.947 116.766 101.587C116.254 101.223 115.955 100.729 115.867 100.104L117.652 100.01C117.706 100.274 117.837 100.476 118.044 100.615C118.252 100.751 118.517 100.82 118.841 100.82C119.159 100.82 119.415 100.759 119.608 100.636C119.804 100.511 119.904 100.351 119.906 100.155C119.904 99.9901 119.834 99.8551 119.698 99.75C119.561 99.642 119.351 99.5597 119.067 99.5028L117.933 99.277C117.294 99.1491 116.818 98.9276 116.506 98.6122C116.196 98.2969 116.041 97.8949 116.041 97.4062C116.041 96.9858 116.155 96.6236 116.382 96.3196C116.612 96.0156 116.935 95.7812 117.35 95.6165C117.767 95.4517 118.256 95.3693 118.816 95.3693C119.642 95.3693 120.293 95.544 120.767 95.8935C121.245 96.2429 121.523 96.7187 121.602 97.321ZM124.095 102V95.4545H125.91V102H124.095ZM125.007 94.6108C124.737 94.6108 124.505 94.5213 124.312 94.3423C124.122 94.1605 124.027 93.9432 124.027 93.6903C124.027 93.4403 124.122 93.2259 124.312 93.0469C124.505 92.8651 124.737 92.7741 125.007 92.7741C125.277 92.7741 125.507 92.8651 125.697 93.0469C125.89 93.2259 125.987 93.4403 125.987 93.6903C125.987 93.9432 125.89 94.1605 125.697 94.3423C125.507 94.5213 125.277 94.6108 125.007 94.6108ZM134.01 97.321L132.348 97.4233C132.32 97.2812 132.259 97.1534 132.165 97.0398C132.071 96.9233 131.948 96.831 131.794 96.7628C131.644 96.6918 131.463 96.6562 131.253 96.6562C130.972 96.6562 130.735 96.7159 130.542 96.8352C130.348 96.9517 130.252 97.108 130.252 97.304C130.252 97.4602 130.314 97.5923 130.439 97.7003C130.564 97.8082 130.779 97.8949 131.083 97.9602L132.267 98.1989C132.904 98.3295 133.378 98.5398 133.691 98.8295C134.003 99.1193 134.159 99.5 134.159 99.9716C134.159 100.401 134.033 100.777 133.78 101.101C133.53 101.425 133.186 101.678 132.749 101.859C132.314 102.038 131.813 102.128 131.245 102.128C130.378 102.128 129.688 101.947 129.174 101.587C128.662 101.223 128.363 100.729 128.275 100.104L130.06 100.01C130.114 100.274 130.245 100.476 130.452 100.615C130.659 100.751 130.925 100.82 131.249 100.82C131.567 100.82 131.823 100.759 132.016 100.636C132.212 100.511 132.311 100.351 132.314 100.155C132.311 99.9901 132.242 99.8551 132.105 99.75C131.969 99.642 131.759 99.5597 131.475 99.5028L130.341 99.277C129.702 99.1491 129.226 98.9276 128.914 98.6122C128.604 98.2969 128.449 97.8949 128.449 97.4062C128.449 96.9858 128.563 96.6236 128.79 96.3196C129.02 96.0156 129.343 95.7812 129.757 95.6165C130.175 95.4517 130.664 95.3693 131.223 95.3693C132.05 95.3693 132.701 95.544 133.175 95.8935C133.652 96.2429 133.931 96.7187 134.01 97.321ZM145.248 95.7827C145.214 95.4389 145.068 95.1719 144.809 94.9815C144.551 94.7912 144.2 94.696 143.757 94.696C143.456 94.696 143.201 94.7386 142.994 94.8239C142.787 94.9062 142.628 95.0213 142.517 95.169C142.409 95.3168 142.355 95.4844 142.355 95.6719C142.349 95.8281 142.382 95.9645 142.453 96.081C142.527 96.1974 142.628 96.2983 142.755 96.3835C142.883 96.4659 143.031 96.5384 143.199 96.6009C143.366 96.6605 143.545 96.7116 143.736 96.7543L144.52 96.9418C144.9 97.027 145.25 97.1406 145.568 97.2827C145.886 97.4247 146.162 97.5994 146.395 97.8068C146.628 98.0142 146.808 98.2585 146.936 98.5398C147.067 98.821 147.133 99.1435 147.136 99.5071C147.133 100.041 146.997 100.504 146.727 100.896C146.46 101.286 146.074 101.588 145.568 101.804C145.065 102.017 144.459 102.124 143.748 102.124C143.044 102.124 142.43 102.016 141.907 101.8C141.388 101.584 140.981 101.264 140.689 100.841C140.399 100.415 140.247 99.8878 140.233 99.2599H142.018C142.038 99.5526 142.122 99.7969 142.27 99.9929C142.42 100.186 142.621 100.332 142.871 100.432C143.123 100.528 143.409 100.577 143.727 100.577C144.04 100.577 144.311 100.531 144.541 100.44C144.774 100.349 144.954 100.223 145.082 100.061C145.21 99.8991 145.274 99.7131 145.274 99.5028C145.274 99.3068 145.216 99.142 145.099 99.0085C144.986 98.875 144.818 98.7614 144.596 98.6676C144.378 98.5739 144.109 98.4886 143.791 98.4119L142.841 98.1733C142.105 97.9943 141.524 97.7145 141.098 97.3338C140.672 96.9531 140.46 96.4403 140.463 95.7955C140.46 95.267 140.601 94.8054 140.885 94.4105C141.172 94.0156 141.565 93.7074 142.065 93.4858C142.565 93.2642 143.133 93.1534 143.77 93.1534C144.417 93.1534 144.983 93.2642 145.466 93.4858C145.951 93.7074 146.329 94.0156 146.599 94.4105C146.869 94.8054 147.008 95.2628 147.017 95.7827H145.248ZM151.41 102.124C150.992 102.124 150.62 102.051 150.293 101.906C149.966 101.759 149.708 101.541 149.518 101.254C149.33 100.964 149.236 100.604 149.236 100.172C149.236 99.8082 149.303 99.5028 149.437 99.2557C149.57 99.0085 149.752 98.8097 149.982 98.6591C150.212 98.5085 150.474 98.3949 150.766 98.3182C151.062 98.2415 151.371 98.1875 151.695 98.1562C152.076 98.1165 152.383 98.0795 152.616 98.0455C152.849 98.0085 153.018 97.9545 153.123 97.8835C153.228 97.8125 153.28 97.7074 153.28 97.5682V97.5426C153.28 97.2727 153.195 97.0639 153.025 96.9162C152.857 96.7685 152.618 96.6946 152.309 96.6946C151.982 96.6946 151.722 96.767 151.529 96.9119C151.336 97.054 151.208 97.233 151.145 97.4489L149.466 97.3125C149.552 96.9148 149.719 96.571 149.969 96.2812C150.219 95.9886 150.542 95.7642 150.937 95.608C151.334 95.4489 151.795 95.3693 152.317 95.3693C152.681 95.3693 153.029 95.4119 153.361 95.4972C153.697 95.5824 153.993 95.7145 154.252 95.8935C154.513 96.0724 154.719 96.3026 154.87 96.5838C155.02 96.8622 155.096 97.196 155.096 97.5852V102H153.374V101.092H153.323C153.218 101.297 153.077 101.477 152.901 101.634C152.725 101.787 152.513 101.908 152.266 101.996C152.019 102.081 151.734 102.124 151.41 102.124ZM151.93 100.871C152.197 100.871 152.432 100.818 152.637 100.713C152.841 100.605 153.002 100.46 153.118 100.278C153.235 100.097 153.293 99.8906 153.293 99.6605V98.9659C153.236 99.0028 153.158 99.0369 153.059 99.0682C152.962 99.0966 152.853 99.1236 152.731 99.1491C152.609 99.1719 152.486 99.1932 152.364 99.2131C152.242 99.2301 152.131 99.2457 152.032 99.2599C151.819 99.2912 151.633 99.3409 151.474 99.4091C151.314 99.4773 151.191 99.5696 151.103 99.6861C151.015 99.7997 150.971 99.9418 150.971 100.112C150.971 100.359 151.06 100.548 151.239 100.679C151.421 100.807 151.651 100.871 151.93 100.871ZM157.704 104.455V95.4545H159.494V96.554H159.575C159.654 96.3778 159.769 96.1989 159.92 96.017C160.073 95.8324 160.272 95.679 160.517 95.5568C160.764 95.4318 161.071 95.3693 161.437 95.3693C161.914 95.3693 162.355 95.4943 162.758 95.7443C163.162 95.9915 163.484 96.3651 163.725 96.8651C163.967 97.3622 164.088 97.9858 164.088 98.7358C164.088 99.4659 163.97 100.082 163.734 100.585C163.501 101.085 163.183 101.464 162.779 101.723C162.379 101.979 161.93 102.107 161.433 102.107C161.081 102.107 160.781 102.048 160.534 101.932C160.289 101.815 160.089 101.669 159.933 101.493C159.777 101.314 159.657 101.134 159.575 100.952H159.519V104.455H157.704ZM159.481 98.7273C159.481 99.1165 159.535 99.456 159.643 99.7457C159.751 100.036 159.907 100.261 160.112 100.423C160.316 100.582 160.565 100.662 160.858 100.662C161.153 100.662 161.403 100.581 161.608 100.419C161.812 100.254 161.967 100.027 162.072 99.7372C162.18 99.4446 162.234 99.108 162.234 98.7273C162.234 98.3494 162.181 98.017 162.076 97.7301C161.971 97.4432 161.816 97.2187 161.612 97.0568C161.407 96.8949 161.156 96.8139 160.858 96.8139C160.562 96.8139 160.312 96.892 160.108 97.0483C159.906 97.2045 159.751 97.4261 159.643 97.7131C159.535 98 159.481 98.3381 159.481 98.7273ZM166.498 104.455V95.4545H168.288V96.554H168.369C168.448 96.3778 168.563 96.1989 168.714 96.017C168.867 95.8324 169.066 95.679 169.31 95.5568C169.558 95.4318 169.864 95.3693 170.231 95.3693C170.708 95.3693 171.148 95.4943 171.552 95.7443C171.955 95.9915 172.278 96.3651 172.519 96.8651C172.761 97.3622 172.881 97.9858 172.881 98.7358C172.881 99.4659 172.763 100.082 172.528 100.585C172.295 101.085 171.977 101.464 171.573 101.723C171.173 101.979 170.724 102.107 170.227 102.107C169.874 102.107 169.575 102.048 169.327 101.932C169.083 101.815 168.883 101.669 168.727 101.493C168.57 101.314 168.451 101.134 168.369 100.952H168.313V104.455H166.498ZM168.275 98.7273C168.275 99.1165 168.329 99.456 168.437 99.7457C168.545 100.036 168.701 100.261 168.906 100.423C169.11 100.582 169.359 100.662 169.651 100.662C169.947 100.662 170.197 100.581 170.401 100.419C170.606 100.254 170.761 100.027 170.866 99.7372C170.974 99.4446 171.028 99.108 171.028 98.7273C171.028 98.3494 170.975 98.017 170.87 97.7301C170.765 97.4432 170.61 97.2187 170.406 97.0568C170.201 96.8949 169.95 96.8139 169.651 96.8139C169.356 96.8139 169.106 96.892 168.901 97.0483C168.7 97.2045 168.545 97.4261 168.437 97.7131C168.329 98 168.275 98.3381 168.275 98.7273ZM177.107 98.2159V102H175.292V93.2727H177.056V96.6094H177.133C177.28 96.223 177.519 95.9205 177.848 95.7017C178.178 95.4801 178.591 95.3693 179.088 95.3693C179.543 95.3693 179.939 95.4688 180.277 95.6676C180.618 95.8636 180.883 96.1463 181.07 96.5156C181.26 96.8821 181.354 97.321 181.351 97.8324V102H179.536V98.1562C179.539 97.7528 179.437 97.4389 179.229 97.2145C179.025 96.9901 178.738 96.8778 178.368 96.8778C178.121 96.8778 177.902 96.9304 177.712 97.0355C177.525 97.1406 177.377 97.294 177.269 97.4957C177.164 97.6946 177.11 97.9347 177.107 98.2159ZM183.98 102V95.4545H185.795V102H183.98ZM184.892 94.6108C184.622 94.6108 184.39 94.5213 184.197 94.3423C184.007 94.1605 183.912 93.9432 183.912 93.6903C183.912 93.4403 184.007 93.2259 184.197 93.0469C184.39 92.8651 184.622 92.7741 184.892 92.7741C185.162 92.7741 185.392 92.8651 185.582 93.0469C185.775 93.2259 185.872 93.4403 185.872 93.6903C185.872 93.9432 185.775 94.1605 185.582 94.3423C185.392 94.5213 185.162 94.6108 184.892 94.6108ZM188.449 102V95.4545H190.209V96.5966H190.278C190.397 96.1903 190.597 95.8835 190.878 95.6761C191.16 95.4659 191.484 95.3608 191.85 95.3608C191.941 95.3608 192.039 95.3665 192.144 95.3778C192.249 95.3892 192.341 95.4048 192.421 95.4247V97.0355C192.336 97.0099 192.218 96.9872 192.067 96.9673C191.917 96.9474 191.779 96.9375 191.654 96.9375C191.387 96.9375 191.148 96.9957 190.938 97.1122C190.731 97.2259 190.566 97.3849 190.444 97.5895C190.324 97.794 190.265 98.0298 190.265 98.2969V102H188.449ZM197.238 102.128C196.565 102.128 195.985 101.991 195.499 101.719C195.016 101.443 194.644 101.054 194.383 100.551C194.121 100.045 193.991 99.4474 193.991 98.7571C193.991 98.0838 194.121 97.4929 194.383 96.9844C194.644 96.4759 195.012 96.0795 195.486 95.7955C195.964 95.5114 196.523 95.3693 197.165 95.3693C197.597 95.3693 197.999 95.4389 198.371 95.5781C198.746 95.7145 199.073 95.9205 199.351 96.196C199.633 96.4716 199.851 96.8182 200.008 97.2358C200.164 97.6506 200.242 98.1364 200.242 98.6932V99.1918H194.715V98.0668H198.533C198.533 97.8054 198.476 97.5739 198.363 97.3722C198.249 97.1705 198.092 97.0128 197.89 96.8991C197.691 96.7827 197.459 96.7244 197.195 96.7244C196.92 96.7244 196.675 96.7884 196.462 96.9162C196.252 97.0412 196.087 97.2102 195.968 97.4233C195.849 97.6335 195.788 97.8679 195.785 98.1264V99.196C195.785 99.5199 195.844 99.7997 195.964 100.036C196.086 100.271 196.258 100.453 196.479 100.581C196.701 100.709 196.964 100.773 197.268 100.773C197.469 100.773 197.654 100.744 197.822 100.688C197.989 100.631 198.133 100.545 198.252 100.432C198.371 100.318 198.462 100.179 198.525 100.014L200.204 100.125C200.119 100.528 199.944 100.881 199.68 101.182C199.418 101.48 199.08 101.713 198.665 101.881C198.253 102.045 197.778 102.128 197.238 102.128Z" fill="black"/>
<path d="M243.792 60.6L230 83H221.392L207.6 60.6H214.992L225.648 77.176L235.856 60.6H243.792ZM263.806 83H256.926V60.6H263.806V83ZM309.676 60.6V83H299.34L283.82 66.2V83H276.94V60.6H287.276L302.796 77.4V60.6H309.676ZM329.678 65.784V69.208H355.534V74.392H329.678V77.848H355.534V83H322.798V60.6H355.534V65.784H329.678Z" fill="black"/>
</svg>
