<svg width="637" height="509" viewBox="0 0 637 509" fill="none" xmlns="http://www.w3.org/2000/svg">
<g filter="url(#filter0_d_53_34)">
<circle cx="289.247" cy="250.405" r="230.374" fill="url(#paint0_linear_53_34)"/>
</g>
<path d="M339.919 266.905C349.788 266.905 359.559 264.961 368.677 261.185C377.794 257.408 386.078 251.873 393.056 244.895C400.034 237.917 405.569 229.633 409.345 220.516C413.122 211.399 415.065 201.627 415.065 191.759C415.065 181.89 413.122 172.119 409.345 163.002C405.569 153.885 400.034 145.6 393.056 138.623C386.078 131.645 377.794 126.109 368.677 122.333C359.559 118.557 349.788 116.613 339.919 116.613V149.838C345.425 149.838 350.876 150.923 355.962 153.029C361.048 155.136 365.669 158.224 369.562 162.117C373.454 166.009 376.542 170.63 378.649 175.717C380.756 180.803 381.84 186.254 381.84 191.759C381.84 197.264 380.756 202.715 378.649 207.801C376.542 212.887 373.454 217.508 369.562 221.401C365.669 225.294 361.048 228.382 355.962 230.488C350.876 232.595 345.425 233.679 339.919 233.679V266.905Z" fill="white"/>
<path d="M339.919 384.197C349.788 384.197 359.559 382.253 368.677 378.477C377.794 374.7 386.078 369.165 393.056 362.187C400.034 355.209 405.569 346.925 409.345 337.808C413.122 328.691 415.065 318.919 415.065 309.051C415.065 299.182 413.122 289.411 409.345 280.294C405.569 271.177 400.034 262.892 393.056 255.915C386.078 248.937 377.794 243.401 368.677 239.625C359.559 235.848 349.788 233.905 339.919 233.905V267.13C345.425 267.13 350.876 268.215 355.962 270.321C361.048 272.428 365.669 275.516 369.562 279.409C373.454 283.301 376.542 287.922 378.649 293.008C380.756 298.095 381.84 303.546 381.84 309.051C381.84 314.556 380.756 320.007 378.649 325.093C376.542 330.179 373.454 334.8 369.562 338.693C365.669 342.586 361.048 345.674 355.962 347.78C350.876 349.887 345.425 350.971 339.919 350.971V384.197Z" fill="white"/>
<rect x="163.43" y="116.613" width="154" height="33" fill="white"/>
<path d="M315.625 233.905H344.919V266.905H315.625V233.905Z" fill="white"/>
<path d="M185.43 233.905H295.43V266.905H185.43V233.905Z" fill="white"/>
<rect x="163.43" y="351.197" width="154" height="33" fill="white"/>
<g filter="url(#filter1_f_53_34)">
<circle cx="568.233" cy="421.77" r="37.573" fill="url(#paint1_linear_53_34)"/>
</g>
<g filter="url(#filter2_f_53_34)">
<path d="M576.494 424.461C578.104 424.461 579.697 424.144 581.184 423.528C582.671 422.912 584.022 422.009 585.161 420.871C586.299 419.733 587.201 418.382 587.817 416.895C588.433 415.408 588.75 413.814 588.75 412.205C588.75 410.595 588.433 409.002 587.817 407.515C587.201 406.028 586.299 404.676 585.161 403.538C584.022 402.4 582.671 401.498 581.184 400.882C579.697 400.266 578.104 399.949 576.494 399.949L576.494 405.368C577.392 405.368 578.281 405.545 579.111 405.888C579.94 406.232 580.694 406.735 581.329 407.37C581.964 408.005 582.467 408.759 582.811 409.588C583.154 410.418 583.331 411.307 583.331 412.205C583.331 413.103 583.154 413.992 582.811 414.821C582.467 415.651 581.964 416.404 581.329 417.039C580.694 417.674 579.94 418.178 579.111 418.521C578.281 418.865 577.392 419.042 576.494 419.042L576.494 424.461Z" fill="white"/>
<path d="M576.494 443.591C578.104 443.591 579.697 443.274 581.184 442.658C582.671 442.042 584.022 441.139 585.161 440.001C586.299 438.863 587.201 437.512 587.817 436.025C588.433 434.538 588.75 432.944 588.75 431.335C588.75 429.725 588.433 428.131 587.817 426.644C587.201 425.157 586.299 423.806 585.161 422.668C584.022 421.53 582.671 420.627 581.184 420.012C579.697 419.396 578.104 419.079 576.494 419.079L576.494 424.498C577.392 424.498 578.281 424.674 579.111 425.018C579.94 425.362 580.694 425.865 581.329 426.5C581.964 427.135 582.467 427.889 582.811 428.718C583.154 429.548 583.331 430.437 583.331 431.335C583.331 432.232 583.154 433.122 582.811 433.951C582.467 434.781 581.964 435.534 581.329 436.169C580.694 436.804 579.94 437.308 579.111 437.651C578.281 437.995 577.392 438.172 576.494 438.172L576.494 443.591Z" fill="white"/>
<rect x="547.711" y="399.949" width="25.1167" height="5.38216" fill="white"/>
<path d="M572.535 419.079H577.313V424.461H572.535V419.079Z" fill="white"/>
<path d="M551.301 419.079H569.241V424.461H551.301V419.079Z" fill="white"/>
<rect x="547.711" y="438.208" width="25.1167" height="5.38216" fill="white"/>
</g>
<g filter="url(#filter3_f_53_34)">
<circle cx="26.1089" cy="465.317" r="21.7261" fill="url(#paint2_linear_53_34)"/>
</g>
<g filter="url(#filter4_f_53_34)">
<path d="M30.8837 466.873C31.8144 466.873 32.7359 466.69 33.5958 466.333C34.4556 465.977 35.2368 465.455 35.8949 464.797C36.553 464.139 37.075 463.358 37.4311 462.498C37.7873 461.638 37.9706 460.717 37.9706 459.786C37.9706 458.855 37.7873 457.934 37.4311 457.074C37.075 456.214 36.553 455.433 35.8949 454.775C35.2368 454.117 34.4556 453.595 33.5958 453.239C32.7359 452.883 31.8144 452.699 30.8837 452.699L30.8837 455.833C31.4029 455.833 31.917 455.935 32.3966 456.134C32.8763 456.332 33.3121 456.623 33.6792 456.991C34.0463 457.358 34.3375 457.794 34.5362 458.273C34.7349 458.753 34.8372 459.267 34.8372 459.786C34.8372 460.305 34.7349 460.819 34.5362 461.299C34.3375 461.779 34.0463 462.214 33.6792 462.582C33.3121 462.949 32.8763 463.24 32.3966 463.439C31.917 463.637 31.4029 463.74 30.8837 463.74L30.8837 466.873Z" fill="white"/>
<path d="M30.8837 477.934C31.8144 477.934 32.7359 477.751 33.5958 477.395C34.4556 477.039 35.2368 476.517 35.8949 475.859C36.553 475.201 37.075 474.419 37.4311 473.56C37.7873 472.7 37.9706 471.778 37.9706 470.848C37.9706 469.917 37.7873 468.995 37.4311 468.136C37.075 467.276 36.553 466.495 35.8949 465.836C35.2368 465.178 34.4556 464.656 33.5958 464.3C32.7359 463.944 31.8144 463.761 30.8837 463.761L30.8837 466.894C31.4029 466.894 31.917 466.996 32.3966 467.195C32.8763 467.394 33.3121 467.685 33.6792 468.052C34.0463 468.419 34.3375 468.855 34.5362 469.335C34.7349 469.814 34.8372 470.328 34.8372 470.848C34.8372 471.367 34.7349 471.881 34.5362 472.361C34.3375 472.84 34.0463 473.276 33.6792 473.643C33.3121 474.01 32.8763 474.301 32.3966 474.5C31.917 474.699 31.4029 474.801 30.8837 474.801L30.8837 477.934Z" fill="white"/>
<rect x="14.2422" y="452.699" width="14.5234" height="3.11216" fill="white"/>
<path d="M28.5957 463.761H31.3584V466.873H28.5957V463.761Z" fill="white"/>
<path d="M16.3184 463.761H26.6922V466.873H16.3184V463.761Z" fill="white"/>
<rect x="14.2422" y="474.822" width="14.5234" height="3.11216" fill="white"/>
</g>
<g filter="url(#filter5_f_53_34)">
<circle cx="610.476" cy="301.525" r="21.7261" fill="url(#paint3_linear_53_34)"/>
</g>
<g filter="url(#filter6_f_53_34)">
<path d="M615.251 303.081C616.182 303.081 617.103 302.898 617.963 302.542C618.823 302.186 619.604 301.664 620.262 301.006C620.92 300.348 621.442 299.566 621.798 298.707C622.154 297.847 622.338 296.925 622.338 295.995C622.338 295.064 622.154 294.142 621.798 293.283C621.442 292.423 620.92 291.641 620.262 290.983C619.604 290.325 618.823 289.803 617.963 289.447C617.103 289.091 616.182 288.908 615.251 288.908L615.251 292.041C615.77 292.041 616.284 292.143 616.764 292.342C617.243 292.541 617.679 292.832 618.046 293.199C618.414 293.566 618.705 294.002 618.903 294.482C619.102 294.961 619.204 295.475 619.204 295.995C619.204 296.514 619.102 297.028 618.903 297.507C618.705 297.987 618.414 298.423 618.046 298.79C617.679 299.157 617.243 299.448 616.764 299.647C616.284 299.846 615.77 299.948 615.251 299.948L615.251 303.081Z" fill="white"/>
<path d="M615.251 314.143C616.182 314.143 617.103 313.96 617.963 313.603C618.823 313.247 619.604 312.725 620.262 312.067C620.92 311.409 621.442 310.628 621.798 309.768C622.154 308.908 622.338 307.987 622.338 307.056C622.338 306.125 622.154 305.204 621.798 304.344C621.442 303.484 620.92 302.703 620.262 302.045C619.604 301.387 618.823 300.865 617.963 300.509C617.103 300.153 616.182 299.969 615.251 299.969L615.251 303.103C615.77 303.103 616.284 303.205 616.764 303.404C617.243 303.602 617.679 303.893 618.046 304.261C618.414 304.628 618.705 305.064 618.903 305.543C619.102 306.023 619.204 306.537 619.204 307.056C619.204 307.575 619.102 308.089 618.903 308.569C618.705 309.049 618.414 309.484 618.046 309.852C617.679 310.219 617.243 310.51 616.764 310.709C616.284 310.907 615.77 311.01 615.251 311.01L615.251 314.143Z" fill="white"/>
<rect x="598.609" y="288.908" width="14.5234" height="3.11216" fill="white"/>
<path d="M612.965 299.969H615.728V303.081H612.965V299.969Z" fill="white"/>
<path d="M600.684 299.969H611.057V303.081H600.684V299.969Z" fill="white"/>
<rect x="598.609" y="311.031" width="14.5234" height="3.11216" fill="white"/>
</g>
<defs>
<filter id="filter0_d_53_34" x="34.873" y="0.0307617" width="508.748" height="508.748" filterUnits="userSpaceOnUse" color-interpolation-filters="sRGB">
<feFlood flood-opacity="0" result="BackgroundImageFix"/>
<feColorMatrix in="SourceAlpha" type="matrix" values="0 0 0 0 0 0 0 0 0 0 0 0 0 0 0 0 0 0 127 0" result="hardAlpha"/>
<feMorphology radius="4" operator="dilate" in="SourceAlpha" result="effect1_dropShadow_53_34"/>
<feOffset dy="4"/>
<feGaussianBlur stdDeviation="10"/>
<feComposite in2="hardAlpha" operator="out"/>
<feColorMatrix type="matrix" values="0 0 0 0 0 0 0 0 0 0.841667 0 0 0 0 0.791166 0 0 0 1 0"/>
<feBlend mode="normal" in2="BackgroundImageFix" result="effect1_dropShadow_53_34"/>
<feBlend mode="normal" in="SourceGraphic" in2="effect1_dropShadow_53_34" result="shape"/>
</filter>
<filter id="filter1_f_53_34" x="526.66" y="380.197" width="83.1445" height="83.146" filterUnits="userSpaceOnUse" color-interpolation-filters="sRGB">
<feFlood flood-opacity="0" result="BackgroundImageFix"/>
<feBlend mode="normal" in="SourceGraphic" in2="BackgroundImageFix" result="shape"/>
<feGaussianBlur stdDeviation="2" result="effect1_foregroundBlur_53_34"/>
</filter>
<filter id="filter2_f_53_34" x="543.711" y="395.949" width="49.0391" height="51.6421" filterUnits="userSpaceOnUse" color-interpolation-filters="sRGB">
<feFlood flood-opacity="0" result="BackgroundImageFix"/>
<feBlend mode="normal" in="SourceGraphic" in2="BackgroundImageFix" result="shape"/>
<feGaussianBlur stdDeviation="2" result="effect1_foregroundBlur_53_34"/>
</filter>
<filter id="filter3_f_53_34" x="0.382812" y="439.591" width="51.4531" height="51.4521" filterUnits="userSpaceOnUse" color-interpolation-filters="sRGB">
<feFlood flood-opacity="0" result="BackgroundImageFix"/>
<feBlend mode="normal" in="SourceGraphic" in2="BackgroundImageFix" result="shape"/>
<feGaussianBlur stdDeviation="2" result="effect1_foregroundBlur_53_34"/>
</filter>
<filter id="filter4_f_53_34" x="10.2422" y="448.699" width="31.7285" height="33.2354" filterUnits="userSpaceOnUse" color-interpolation-filters="sRGB">
<feFlood flood-opacity="0" result="BackgroundImageFix"/>
<feBlend mode="normal" in="SourceGraphic" in2="BackgroundImageFix" result="shape"/>
<feGaussianBlur stdDeviation="2" result="effect1_foregroundBlur_53_34"/>
</filter>
<filter id="filter5_f_53_34" x="584.75" y="275.799" width="51.4531" height="51.4521" filterUnits="userSpaceOnUse" color-interpolation-filters="sRGB">
<feFlood flood-opacity="0" result="BackgroundImageFix"/>
<feBlend mode="normal" in="SourceGraphic" in2="BackgroundImageFix" result="shape"/>
<feGaussianBlur stdDeviation="2" result="effect1_foregroundBlur_53_34"/>
</filter>
<filter id="filter6_f_53_34" x="594.609" y="284.908" width="31.7266" height="33.2354" filterUnits="userSpaceOnUse" color-interpolation-filters="sRGB">
<feFlood flood-opacity="0" result="BackgroundImageFix"/>
<feBlend mode="normal" in="SourceGraphic" in2="BackgroundImageFix" result="shape"/>
<feGaussianBlur stdDeviation="2" result="effect1_foregroundBlur_53_34"/>
</filter>
<linearGradient id="paint0_linear_53_34" x1="289.247" y1="20.0308" x2="289.247" y2="480.779" gradientUnits="userSpaceOnUse">
<stop stop-color="#00D7CA"/>
<stop offset="1" stop-color="#08726B"/>
</linearGradient>
<linearGradient id="paint1_linear_53_34" x1="568.233" y1="384.197" x2="568.233" y2="459.343" gradientUnits="userSpaceOnUse">
<stop stop-color="#00D7CA"/>
<stop offset="1" stop-color="#08726B"/>
</linearGradient>
<linearGradient id="paint2_linear_53_34" x1="26.1089" y1="443.591" x2="26.1089" y2="487.043" gradientUnits="userSpaceOnUse">
<stop stop-color="#00D7CA"/>
<stop offset="1" stop-color="#08726B"/>
</linearGradient>
<linearGradient id="paint3_linear_53_34" x1="610.476" y1="279.799" x2="610.476" y2="323.251" gradientUnits="userSpaceOnUse">
<stop stop-color="#00D7CA"/>
<stop offset="1" stop-color="#08726B"/>
</linearGradient>
</defs>
</svg>
