<svg width="81" height="81" viewBox="0 0 81 81" fill="none" xmlns="http://www.w3.org/2000/svg">
<path fill-rule="evenodd" clip-rule="evenodd" d="M80.3602 0.27233V0.272324L79.1046 0.272324V0.27233H72.8264V1.52796H79.1046V7.80609H80.3602L80.3602 1.52796H80.3602V0.27233H80.3602Z" fill="white"/>
<path fill-rule="evenodd" clip-rule="evenodd" d="M3.24249e-05 0.27233V0.272324L1.25566 0.272324V0.27233H7.53378V1.52796H1.25566V7.80609H3.29018e-05L3.24249e-05 1.52796H1.4782e-05V0.27233H3.24249e-05Z" fill="white"/>
<path fill-rule="evenodd" clip-rule="evenodd" d="M1.4782e-05 80.6325L7.53378 80.6325L7.53378 79.3769L1.25567 79.3769L1.25567 73.0987L4.26203e-05 73.0987L4.15946e-05 79.3769L1.48917e-05 79.3769L1.4782e-05 80.6325Z" fill="white"/>
<path fill-rule="evenodd" clip-rule="evenodd" d="M80.3602 80.6325L72.8264 80.6325L72.8264 79.3769L79.1046 79.3769L79.1046 73.0987L80.3602 73.0987L80.3602 79.3769L80.3602 79.3769L80.3602 80.6325Z" fill="white"/>
<path d="M73.7196 40.571C73.7196 58.5961 58.6559 73.2599 40.0092 73.2599C21.3625 73.2599 6.29875 58.5961 6.29875 40.571C6.29875 22.546 21.3625 7.88214 40.0092 7.88214C58.6559 7.88214 73.7196 22.546 73.7196 40.571Z" fill="#6FCF97" stroke="#6FCF97" stroke-width="2.04306"/>
<g clip-path="url(#clip0_0_1)">
<path fill-rule="evenodd" clip-rule="evenodd" d="M59.125 26.525C55.4875 21.875 50.1625 18.9125 44.275 18.9125C32.875 18.9125 24.5125 29.525 24.5125 41C24.5125 48.9875 29.8375 54.9875 35.725 54.9875C36.2875 54.9875 36.8125 54.95 37.375 54.8375C33.4 51.95 30.8875 46.7 30.8875 41C30.8875 31.925 37.0375 24.8375 44.275 24.8375C52.1875 24.8375 57.6625 32.675 57.6625 41C57.625 47.15 55.45 53.2625 51.5875 57.7625C48.2125 61.7 43.8625 64.175 39.0625 64.9625C39.0625 64.9625 39.475 65 40 65C53.2375 65 64 54.2375 64 41C64 35.5625 62.2 30.5375 59.125 26.525ZM55.4875 41C55.4875 33.0125 50.1625 27.0125 44.275 27.0125C43.7125 27.0125 43.1875 27.05 42.625 27.1625C46.6 30.05 49.1125 35.3 49.1125 41C49.1125 50.075 42.9625 57.1625 35.725 57.1625C27.8125 57.1625 22.3375 49.325 22.3375 41C22.375 34.85 24.55 28.7375 28.4125 24.2375C31.7875 20.3 36.1375 17.825 40.9375 17.0375C40.9375 17.0375 40.525 17 40 17C26.7625 17 16 27.7625 16 41C16 46.4375 17.8 51.4625 20.875 55.475C24.5125 60.125 29.8375 63.05 35.725 63.05C47.125 63.0875 55.4875 52.475 55.4875 41Z" fill="#46BC78"/>
</g>
<defs>
<clipPath id="clip0_0_1">
<rect width="48" height="48" fill="white" transform="translate(16 17)"/>
</clipPath>
</defs>
</svg>
