<svg width="113" height="102" viewBox="0 0 113 102" fill="none" xmlns="http://www.w3.org/2000/svg">
<path fill-rule="evenodd" clip-rule="evenodd" d="M80.3602 10.2723V10.2723L79.1046 10.2723V10.2723H72.8264V11.528H79.1046V17.8061H80.3602L80.3602 11.528H80.3602V10.2723H80.3602Z" fill="white"/>
<path fill-rule="evenodd" clip-rule="evenodd" d="M4.00543e-05 10.2723V10.2723L1.25567 10.2723V10.2723H7.53379V11.528H1.25567V17.8061H4.05312e-05L4.00543e-05 11.528H2.24113e-05V10.2723H4.00543e-05Z" fill="white"/>
<path fill-rule="evenodd" clip-rule="evenodd" d="M2.24113e-05 90.6325L7.53379 90.6325L7.53379 89.3769L1.25568 89.3769L1.25568 83.0987L5.02497e-05 83.0987L4.9224e-05 89.3769L2.25211e-05 89.3769L2.24113e-05 90.6325Z" fill="white"/>
<path fill-rule="evenodd" clip-rule="evenodd" d="M80.3602 90.6325L72.8264 90.6325L72.8264 89.3769L79.1046 89.3769L79.1046 83.0987L80.3602 83.0987L80.3602 89.3769L80.3602 89.3769L80.3602 90.6325Z" fill="white"/>
<path d="M73.7196 50.571C73.7196 68.5961 58.6559 83.2599 40.0092 83.2599C21.3625 83.2599 6.29875 68.5961 6.29875 50.571C6.29875 32.546 21.3625 17.8821 40.0092 17.8821C58.6559 17.8821 73.7196 32.546 73.7196 50.571Z" fill="#6FCF97" stroke="#6FCF97" stroke-width="2.04306"/>
<path d="M38.4072 66.419V32.9872H40.5489V66.419H38.4072ZM45.6159 43.0168C45.4592 41.6934 44.8237 40.6661 43.7093 39.9348C42.5949 39.2035 41.228 38.8378 39.6087 38.8378C38.4246 38.8378 37.3886 39.0293 36.5005 39.4124C35.6212 39.7955 34.9334 40.3222 34.4372 40.9926C33.9496 41.663 33.7059 42.4247 33.7059 43.278C33.7059 43.9919 33.8756 44.6057 34.2152 45.1193C34.5634 45.6243 35.0074 46.0465 35.5472 46.3861C36.087 46.7169 36.6529 46.9912 37.2449 47.2088C37.837 47.4178 38.3811 47.5875 38.8773 47.7181L41.5937 48.4494C42.2902 48.6323 43.065 48.8848 43.9182 49.2069C44.7801 49.529 45.6029 49.9687 46.3864 50.5259C47.1787 51.0744 47.8317 51.7796 48.3453 52.6415C48.859 53.5034 49.1158 54.5612 49.1158 55.8149C49.1158 57.2601 48.7371 58.5661 47.9797 59.7327C47.2309 60.8993 46.134 61.8265 44.6887 62.5143C43.2522 63.2021 41.5066 63.546 39.452 63.546C37.5366 63.546 35.8781 63.2369 34.4764 62.6188C33.0834 62.0007 31.9864 61.1387 31.1854 60.033C30.3931 58.9274 29.9448 57.6432 29.8403 56.1806H33.1835C33.2705 57.1905 33.6101 58.0263 34.2021 58.6879C34.8028 59.3409 35.5603 59.8285 36.4744 60.1506C37.3973 60.464 38.3898 60.6207 39.452 60.6207C40.6882 60.6207 41.7983 60.4205 42.7821 60.02C43.7659 59.6108 44.5451 59.0449 45.1197 58.3223C45.6943 57.591 45.9816 56.7378 45.9816 55.7627C45.9816 54.8746 45.7335 54.152 45.2372 53.5948C44.741 53.0376 44.088 52.5849 43.2783 52.2366C42.4687 51.8884 41.5937 51.5837 40.6534 51.3225L37.3625 50.3822C35.273 49.7815 33.6188 48.9239 32.3999 47.8095C31.1811 46.6951 30.5716 45.2369 30.5716 43.4347C30.5716 41.9372 30.9765 40.6313 31.7861 39.5169C32.6045 38.3938 33.7015 37.5232 35.0771 36.905C36.4614 36.2782 38.0067 35.9647 39.7131 35.9647C41.437 35.9647 42.9693 36.2738 44.31 36.892C45.6508 37.5014 46.7129 38.3372 47.4965 39.3993C48.2888 40.4615 48.7066 41.6673 48.7502 43.0168H45.6159Z" fill="#46BC78"/>
<path d="M23.1809 7.02164L41.2458 1L112 15.3014V87.561L41.2458 101.11L23.1809 95.0881" stroke="#FFF8F8" stroke-width="0.752705"/>
<path d="M41.2458 1V101.11" stroke="#FFF8F8" stroke-width="0.752705"/>
<path d="M63.0742 5.51627V96.5935" stroke="#FFF8F8" stroke-width="0.752705"/>
<path d="M84.1499 10.0325V92.83" stroke="#FFF8F8" stroke-width="0.752705"/>
<path d="M100.709 13.0433L100.709 89.8192" stroke="#FFF8F8" stroke-width="0.752705"/>
<path d="M41.2458 28.8501L112 35.6244" stroke="#FFF8F8" stroke-width="0.752705"/>
<path d="M41.2458 53.6894H112" stroke="#FFF8F8" stroke-width="0.752705"/>
<path d="M41.2458 77.0231L112 70.2487" stroke="#FFF8F8" stroke-width="0.752705"/>
<path d="M112 15.3013L93.1824 20.5703L23.1809 7.02158V18.9036M112 87.561L93.1824 81.5393L23.1809 95.088V83.2598" stroke="#FFF8F8" stroke-width="0.752705"/>
</svg>
