<svg width="92" height="100" viewBox="0 0 92 100" fill="none" xmlns="http://www.w3.org/2000/svg">
<path d="M79.6833 49.1144C79.745 49.5064 79.7866 49.9017 79.8074 50.3L79.2488 50.3292C79.2587 50.5179 79.2637 50.7073 79.2637 50.8975C79.2637 51.0876 79.2587 51.277 79.2488 51.4658L79.8074 51.4949C79.7866 51.8932 79.745 52.2885 79.6833 52.6805L79.1308 52.5935C79.0721 52.9671 78.994 53.3377 78.8972 53.7052L79.4381 53.8477C79.3373 54.2303 79.2172 54.6093 79.0784 54.9843L78.5538 54.7901C78.423 55.1436 78.2745 55.494 78.1089 55.8409L78.6136 56.0818C78.4441 56.437 78.2575 56.7881 78.0545 57.1348L77.5719 56.8523C77.3808 57.1786 77.1743 57.5015 76.9527 57.8206L77.4121 58.1397C77.188 58.4623 76.9495 58.7806 76.6969 59.0945L76.2612 58.7439C76.0228 59.0401 75.7712 59.3326 75.5066 59.6211L75.9189 59.9991C75.6536 60.2884 75.376 60.5735 75.0866 60.8541L74.6973 60.4525C74.4229 60.7185 74.1372 60.9807 73.8405 61.2388L74.2076 61.6607C73.9114 61.9184 73.6049 62.1719 73.2884 62.4209L72.9426 61.9813C72.6408 62.2187 72.3294 62.4522 72.0088 62.6816L72.3342 63.1365C72.0146 63.3651 71.6863 63.5895 71.3495 63.8095L71.0436 63.3413C70.7208 63.5522 70.3898 63.7592 70.0509 63.962L70.3382 64.4419C70.0006 64.644 69.6556 64.8419 69.3033 65.0355L69.0339 64.5454C68.6945 64.7319 68.3482 64.9145 67.9951 65.0929L68.2474 65.5921C67.8956 65.7699 67.5374 65.9436 67.1729 66.1131L66.937 65.606C66.5845 65.7699 66.2259 65.9299 65.8616 66.0858L66.0816 66.6001C65.7196 66.7549 65.3521 66.9058 64.9793 67.0525L64.7744 66.5321C64.4128 66.6744 64.046 66.8128 63.6742 66.9472L63.8643 67.4732C63.4934 67.6073 63.1176 67.7373 62.7372 67.8633L62.5613 67.3324C62.191 67.4551 61.8161 67.5738 61.4369 67.6886L61.5989 68.2239C61.2203 68.3385 60.8374 68.4491 60.4505 68.5557L60.302 68.0164C59.9262 68.1199 59.5464 68.2196 59.1629 68.3153L59.2983 68.858C58.9152 68.9535 58.5286 69.0452 58.1384 69.1328L58.0158 68.5871C57.6342 68.6728 57.2491 68.7547 56.8608 68.8326L56.9708 69.381C56.5824 69.4589 56.1909 69.5329 55.7962 69.603L55.6985 69.0522C55.3138 69.1205 54.9261 69.1849 54.5355 69.2454L54.6211 69.7981C54.2305 69.8587 53.837 69.9153 53.441 69.968L53.3672 69.4136C52.9785 69.4653 52.5873 69.5131 52.1935 69.557L52.2555 70.1129C51.8619 70.1568 51.466 70.1969 51.0677 70.2329L51.0172 69.6759C50.6274 69.7112 50.2353 69.7427 49.8411 69.7703L49.8801 70.3283C49.485 70.3559 49.0879 70.3797 48.6887 70.3995L48.661 69.8409C48.2685 69.8604 47.8741 69.8761 47.478 69.8878L47.4945 70.4469C47.0994 70.4586 46.7024 70.4665 46.3039 70.4704L46.2983 69.9111C46.1009 69.9131 45.9031 69.9141 45.7049 69.9141C45.5067 69.9141 45.3089 69.9131 45.1115 69.9111L45.106 70.4704C44.7074 70.4665 44.3105 70.4586 43.9153 70.4469L43.9319 69.8878C43.5357 69.8761 43.1413 69.8604 42.7489 69.8409L42.7211 70.3995C42.322 70.3797 41.9248 70.3559 41.5298 70.3283L41.5688 69.7703C41.1746 69.7427 40.7825 69.7112 40.3926 69.6759L40.3422 70.2329C39.9439 70.1969 39.5479 70.1568 39.1543 70.1129L39.2164 69.557C38.8226 69.5131 38.4313 69.4653 38.0427 69.4136L37.9689 69.968C37.5728 69.9153 37.1794 69.8587 36.7888 69.7981L36.8744 69.2454C36.4838 69.1849 36.0961 69.1205 35.7114 69.0522L35.6137 69.603C35.219 69.5329 34.8274 69.4589 34.4391 69.381L34.5491 68.8326C34.1608 68.7547 33.7757 68.6728 33.3941 68.5871L33.2715 69.1328C32.8813 69.0452 32.4946 68.9535 32.1116 68.858L32.247 68.3153C31.8635 68.2196 31.4837 68.1199 31.1079 68.0164L30.9594 68.5557C30.5725 68.4491 30.1896 68.3385 29.811 68.2239L29.973 67.6886C29.5937 67.5738 29.2189 67.455 28.8486 67.3324L28.6727 67.8633C28.2923 67.7373 27.9165 67.6073 27.5456 67.4732L27.7357 66.9472C27.3638 66.8128 26.997 66.6744 26.6354 66.5321L26.4306 67.0525C26.0578 66.9058 25.6903 66.7549 25.3283 66.6001L25.5483 66.0858C25.1839 65.9299 24.8254 65.7699 24.4728 65.606L24.237 66.1131C23.8725 65.9436 23.5143 65.7699 23.1625 65.5921L23.4147 65.0929C23.0617 64.9145 22.7153 64.7319 22.376 64.5454L22.1066 65.0355C21.7543 64.8419 21.4093 64.644 21.0717 64.4419L21.3589 63.962C21.0201 63.7592 20.6891 63.5522 20.3663 63.3413L20.0603 63.8095C19.7236 63.5895 19.3952 63.3651 19.0757 63.1365L19.4011 62.6816C19.0805 62.4522 18.7691 62.2187 18.4673 61.9813L18.1215 62.4209C17.805 62.1719 17.4984 61.9184 17.2022 61.6607L17.5694 61.2388C17.2727 60.9807 16.987 60.7185 16.7126 60.4525L16.3233 60.8541C16.0339 60.5735 15.7563 60.2884 15.491 59.9991L15.9033 59.6211C15.6387 59.3326 15.3871 59.0401 15.1487 58.7439L14.713 59.0945C14.4604 58.7806 14.2218 58.4622 13.9978 58.1396L14.4572 57.8206C14.2356 57.5015 14.0291 57.1786 13.838 56.8522L13.3553 57.1348C13.1523 56.7881 12.9658 56.437 12.7962 56.0818L13.301 55.8409C13.1353 55.494 12.9869 55.1436 12.8561 54.7901L12.3315 54.9843C12.1927 54.6093 12.0726 54.2303 11.9718 53.8477L12.5127 53.7052C12.4159 53.3377 12.3378 52.9671 12.279 52.5935L11.7265 52.6805C11.6649 52.2885 11.6233 51.8932 11.6025 51.4949L12.1611 51.4657C12.1512 51.277 12.1462 51.0876 12.1462 50.8975C12.1462 50.7073 12.1512 50.5179 12.1611 50.3291L11.6025 50.3C11.6233 49.9017 11.6649 49.5064 11.7265 49.1144L12.2791 49.2014C12.3378 48.8278 12.4159 48.4572 12.5127 48.0897L11.9718 47.9472C12.0726 47.5646 12.1927 47.1856 12.3315 46.8106L12.8561 47.0048C12.9869 46.6513 13.1353 46.3009 13.301 45.954L12.7962 45.7131C12.9658 45.3579 13.1523 45.0068 13.3553 44.6601L13.838 44.9426C14.0291 44.6163 14.2356 44.2934 14.4572 43.9743L13.9978 43.6552C14.2218 43.3326 14.4604 43.0143 14.713 42.7004L15.1487 43.051C15.3871 42.7548 15.6387 42.4623 15.9033 42.1738L15.491 41.7958C15.7563 41.5065 16.0339 41.2214 16.3233 40.9408L16.7126 41.3424C16.987 41.0764 17.2727 40.8142 17.5694 40.5561L17.2022 40.1342C17.4984 39.8765 17.805 39.623 18.1215 39.374L18.4673 39.8136C18.7691 39.5762 19.0805 39.3427 19.4011 39.1133L19.0757 38.6584C19.3953 38.4298 19.7236 38.2054 20.0603 37.9854L20.3663 38.4536C20.6891 38.2427 21.0201 38.0357 21.359 37.8329L21.0717 37.353C21.4093 37.1509 21.7543 36.953 22.1066 36.7594L22.376 37.2495C22.7154 37.063 23.0617 36.8804 23.4148 36.702L23.1625 36.2028C23.5143 36.025 23.8725 35.8513 24.237 35.6818L24.4728 36.1889C24.8254 36.025 25.1839 35.865 25.5483 35.7091L25.3283 35.1948C25.6903 35.04 26.0578 34.8891 26.4306 34.7424L26.6354 35.2628C26.997 35.1205 27.3639 34.9821 27.7357 34.8477L27.5456 34.3217C27.9165 34.1876 28.2923 34.0576 28.6727 33.9316L28.8486 34.4625C29.2189 34.3399 29.5938 34.2211 29.973 34.1063L29.811 33.571C30.1896 33.4564 30.5725 33.3458 30.9594 33.2392L31.1079 33.7785C31.4837 33.675 31.8635 33.5753 32.247 33.4796L32.1116 32.9369C32.4946 32.8414 32.8813 32.7497 33.2715 32.6621L33.3941 33.2078C33.7757 33.1221 34.1608 33.0402 34.5491 32.9623L34.4391 32.4139C34.8275 32.336 35.219 32.262 35.6137 32.192L35.7114 32.7427C36.0961 32.6744 36.4838 32.61 36.8744 32.5495L36.7888 31.9968C37.1794 31.9362 37.5729 31.8796 37.9689 31.8269L38.0427 32.3813C38.4314 32.3296 38.8226 32.2818 39.2164 32.2379L39.1544 31.682C39.5479 31.6381 39.9439 31.598 40.3422 31.562L40.3927 32.119C40.7825 32.0837 41.1746 32.0522 41.5688 32.0246L41.5298 31.4666C41.9248 31.439 42.322 31.4152 42.7212 31.3954L42.7489 31.954C43.1414 31.9345 43.5357 31.9188 43.9319 31.9071L43.9154 31.348C44.3105 31.3363 44.7074 31.3284 45.106 31.3245L45.1115 31.8838C45.3089 31.8818 45.5067 31.8808 45.7049 31.8808C45.9031 31.8808 46.101 31.8818 46.2983 31.8838L46.3039 31.3245C46.7025 31.3284 47.0994 31.3363 47.4945 31.348L47.478 31.9071C47.8742 31.9188 48.2685 31.9345 48.661 31.954L48.6887 31.3954C49.0879 31.4152 49.4851 31.439 49.8801 31.4666L49.8411 32.0246C50.2353 32.0522 50.6274 32.0837 51.0172 32.119L51.0677 31.562C51.466 31.598 51.862 31.6381 52.2555 31.682L52.1935 32.2379C52.5873 32.2818 52.9785 32.3296 53.3672 32.3813L53.441 31.8269C53.837 31.8796 54.2305 31.9362 54.6211 31.9968L54.5355 32.5495C54.9261 32.61 55.3138 32.6744 55.6985 32.7427L55.7962 32.192C56.1909 32.262 56.5824 32.336 56.9708 32.4139L56.8608 32.9623C57.2491 33.0402 57.6342 33.1221 58.0158 33.2078L58.1384 32.6621C58.5286 32.7497 58.9153 32.8414 59.2983 32.9369L59.1629 33.4796C59.5464 33.5753 59.9262 33.675 60.302 33.7785L60.4505 33.2392C60.8374 33.3458 61.2203 33.4564 61.5989 33.571L61.4369 34.1063C61.8161 34.2211 62.191 34.3399 62.5613 34.4625L62.7372 33.9316C63.1176 34.0576 63.4934 34.1877 63.8643 34.3217L63.6742 34.8477C64.046 34.9821 64.4128 35.1205 64.7745 35.2628L64.9793 34.7424C65.3521 34.8891 65.7196 35.04 66.0816 35.1948L65.8616 35.7091C66.226 35.865 66.5845 36.025 66.937 36.1889L67.1729 35.6818C67.5374 35.8513 67.8956 36.025 68.2474 36.2028L67.9951 36.702C68.3482 36.8805 68.6945 37.063 69.0339 37.2495L69.3033 36.7594C69.6556 36.953 70.0006 37.1509 70.3382 37.353L70.0509 37.8329C70.3898 38.0357 70.7208 38.2427 71.0436 38.4536L71.3495 37.9854C71.6863 38.2054 72.0146 38.4298 72.3342 38.6584L72.0088 39.1133C72.3294 39.3427 72.6408 39.5762 72.9426 39.8136L73.2884 39.374C73.6049 39.623 73.9114 39.8765 74.2076 40.1342L73.8405 40.5561C74.1372 40.8142 74.4229 41.0764 74.6973 41.3424L75.0866 40.9409C75.376 41.2214 75.6536 41.5065 75.9189 41.7958L75.5066 42.1738C75.7712 42.4623 76.0228 42.7548 76.2612 43.051L76.6969 42.7004C76.9495 43.0143 77.1881 43.3327 77.4121 43.6553L76.9527 43.9743C77.1743 44.2934 77.3808 44.6163 77.5719 44.9427L78.0545 44.6601C78.2576 45.0068 78.4441 45.3579 78.6136 45.7131L78.1089 45.954C78.2745 46.301 78.423 46.6513 78.5538 47.0048L79.0784 46.8106C79.2172 47.1856 79.3373 47.5646 79.4381 47.9472L78.8972 48.0897C78.994 48.4572 79.0721 48.8278 79.1308 49.2014L79.6833 49.1144Z" fill="#219653" fill-opacity="0.5" stroke="white" stroke-width="1.11862" stroke-dasharray="1.22 1.22"/>
<mask id="mask0_575_203" style="mask-type:alpha" maskUnits="userSpaceOnUse" x="11" y="54" width="69" height="40">
<ellipse cx="45.7049" cy="73.8709" rx="34.118" ry="19.5759" fill="#D9D9D9" fill-opacity="0.3"/>
</mask>
<g mask="url(#mask0_575_203)">
<path d="M24.376 48.201L0 100" stroke="#FFF8F8" stroke-width="0.6094"/>
<path d="M27.423 48.201L3.047 100" stroke="#FFF8F8" stroke-width="0.6094"/>
<path d="M30.47 48.201L6.09399 100" stroke="#FFF8F8" stroke-width="0.6094"/>
<path d="M33.517 48.201L9.14099 100" stroke="#FFF8F8" stroke-width="0.6094"/>
<path d="M36.564 48.201L12.188 100" stroke="#FFF8F8" stroke-width="0.6094"/>
<path d="M39.611 48.201L15.235 100" stroke="#FFF8F8" stroke-width="0.6094"/>
<path d="M42.658 48.201L18.282 100" stroke="#FFF8F8" stroke-width="0.6094"/>
<path d="M45.705 48.201L21.329 100" stroke="#FFF8F8" stroke-width="0.6094"/>
<path d="M48.752 48.201L24.376 100" stroke="#FFF8F8" stroke-width="0.6094"/>
<path d="M51.799 48.201L27.423 100" stroke="#FFF8F8" stroke-width="0.6094"/>
<path d="M54.846 48.201L30.47 100" stroke="#FFF8F8" stroke-width="0.6094"/>
<path d="M57.893 48.201L33.517 100" stroke="#FFF8F8" stroke-width="0.6094"/>
<path d="M60.9399 48.201L36.564 100" stroke="#FFF8F8" stroke-width="0.6094"/>
<path d="M63.9869 48.201L39.611 100" stroke="#FFF8F8" stroke-width="0.6094"/>
<path d="M67.0339 48.201L42.658 100" stroke="#FFF8F8" stroke-width="0.6094"/>
<path d="M70.0809 48.201L45.705 100" stroke="#FFF8F8" stroke-width="0.6094"/>
<path d="M73.1279 48.201L48.752 100" stroke="#FFF8F8" stroke-width="0.6094"/>
<path d="M76.1749 48.201L51.799 100" stroke="#FFF8F8" stroke-width="0.6094"/>
<path d="M79.2219 48.201L54.8459 100" stroke="#FFF8F8" stroke-width="0.6094"/>
<path d="M82.2689 48.201L57.8929 100" stroke="#FFF8F8" stroke-width="0.6094"/>
<path d="M85.3159 48.201L60.9399 100" stroke="#FFF8F8" stroke-width="0.6094"/>
<path d="M88.3629 48.201L63.9869 100" stroke="#FFF8F8" stroke-width="0.6094"/>
<path d="M91.4099 48.201L67.0339 100" stroke="#FFF8F8" stroke-width="0.6094"/>
</g>
<path d="M79.2637 73.8709C79.2637 78.9905 75.6422 83.7335 69.5517 87.2281C63.4766 90.7138 55.0467 92.8875 45.7049 92.8875C36.3632 92.8875 27.9333 90.7138 21.8582 87.2281C15.7677 83.7335 12.1462 78.9905 12.1462 73.8709C12.1462 68.7514 15.7677 64.0083 21.8582 60.5138C27.9333 57.0281 36.3632 54.8543 45.7049 54.8543C55.0467 54.8543 63.4766 57.0281 69.5517 60.5138C75.6422 64.0083 79.2637 68.7514 79.2637 73.8709Z" fill="#6FCF97" fill-opacity="0.3" stroke="white" stroke-width="1.11862"/>
<path d="M79.2637 26.2877C79.2637 31.7317 75.6232 36.7529 69.54 40.4428C63.4669 44.1264 55.0414 46.423 45.7049 46.423C36.3685 46.423 27.9429 44.1264 21.8699 40.4428C15.7867 36.7529 12.1462 31.7317 12.1462 26.2877C12.1462 20.8437 15.7867 15.8225 21.8699 12.1327C27.9429 8.44907 36.3685 6.15251 45.7049 6.15251C55.0414 6.15251 63.4669 8.44907 69.54 12.1327C75.6232 15.8225 79.2637 20.8437 79.2637 26.2877Z" fill="#6FCF97" stroke="white" stroke-width="1.11862"/>
<ellipse cx="45.7049" cy="26.2877" rx="6.15243" ry="3.91518" fill="#219653"/>
<path d="M9.34973 26.847L4.87524 26.847" stroke="#FFF8F8" stroke-width="0.319607"/>
<path d="M7.11237 29.0843L7.11237 24.6098" stroke="#FFF8F8" stroke-width="0.319607"/>
<path d="M86.5347 26.847L82.0602 26.847" stroke="#FFF8F8" stroke-width="0.319607"/>
<path d="M84.2974 29.0843L84.2974 24.6098" stroke="#FFF8F8" stroke-width="0.319607"/>
<path d="M48.5015 50.3382L44.027 50.3382" stroke="#FFF8F8" stroke-width="0.319607"/>
<path d="M46.2642 52.5753L46.2642 48.1009" stroke="#FFF8F8" stroke-width="0.319607"/>
<path d="M48.5015 2.23727L44.027 2.23727" stroke="#FFF8F8" stroke-width="0.319607"/>
<path d="M46.2642 4.47446L46.2642 -3.91603e-05" stroke="#FFF8F8" stroke-width="0.319607"/>
</svg>
