<svg width="132" height="101" viewBox="0 0 132 101" fill="none" xmlns="http://www.w3.org/2000/svg">
<path d="M110.192 70.432C110.269 70.9048 110.321 71.3818 110.347 71.8626L109.995 71.8816C110.008 72.1147 110.014 72.3488 110.014 72.5837C110.014 72.8186 110.008 73.0527 109.995 73.2858L110.347 73.3048C110.321 73.7856 110.269 74.2626 110.192 74.7354L109.844 74.6788C109.769 75.1397 109.67 75.5967 109.546 76.0493L109.886 76.1419C109.761 76.6024 109.611 77.0583 109.438 77.5092L109.11 77.3832C108.943 77.8171 108.755 78.2466 108.545 78.6712L108.86 78.8273C108.65 79.2532 108.418 79.674 108.166 80.0892L107.865 79.9065C107.624 80.3042 107.363 80.697 107.084 81.0846L107.369 81.2905C107.092 81.6749 106.798 82.0539 106.486 82.4271L106.216 82.2013C105.917 82.5583 105.602 82.9103 105.272 83.2568L105.527 83.4998C105.2 83.8424 104.859 84.1796 104.503 84.511L104.263 84.2532C103.921 84.5715 103.565 84.8845 103.197 85.192L103.422 85.4624C103.058 85.7659 102.682 86.064 102.293 86.3563L102.081 86.075C101.707 86.3567 101.321 86.6332 100.924 86.9043L101.122 87.1951C100.731 87.4626 100.328 87.7246 99.9155 87.9811L99.7296 87.682C99.3304 87.9301 98.9215 88.173 98.5031 88.4105L98.6769 88.7167C98.2636 88.9512 97.8414 89.1804 97.4105 89.4041L97.2483 89.0916C96.83 89.3088 96.4033 89.5207 95.9686 89.7273L96.1197 90.0453C95.6899 90.2497 95.2523 90.4487 94.8073 90.6423L94.6668 90.3194C94.2346 90.5075 93.7953 90.6904 93.3492 90.868L93.4794 91.1951C93.0377 91.371 92.5894 91.5417 92.1347 91.707L92.0144 91.3761C91.5704 91.5376 91.1202 91.6939 90.6642 91.845L90.775 92.1793C90.3228 92.3291 89.8649 92.4738 89.4016 92.6132L89.3001 92.276C88.8465 92.4125 88.3876 92.5439 87.9236 92.6701L88.016 93.0099C87.5554 93.1352 87.0898 93.2553 86.6195 93.3703L86.5359 93.0282C86.0759 93.1406 85.6114 93.2479 85.1424 93.3501L85.2174 93.6942C84.7518 93.7956 84.2819 93.892 83.808 93.9832L83.7414 93.6375C83.2756 93.7271 82.8059 93.8118 82.3324 93.8912L82.3906 94.2385C81.9195 94.3176 81.4446 94.3916 80.9663 94.4605L80.9161 94.1119C80.4458 94.1796 79.972 94.2423 79.4949 94.2998L79.5371 94.6494C79.0637 94.7065 78.5871 94.7586 78.1075 94.8056L78.0732 94.4551C77.6005 94.5014 77.1249 94.5427 76.6465 94.5788L76.6731 94.9299C76.1963 94.966 75.7167 94.997 75.2346 95.0228L75.2157 94.6712C74.7408 94.6967 74.2633 94.7172 73.7835 94.7325L73.7948 95.0844C73.3177 95.0997 72.8383 95.1099 72.3567 95.1151L72.353 94.763C72.1138 94.7655 71.8741 94.7668 71.6339 94.7668C71.3936 94.7668 71.1539 94.7655 70.9147 94.763L70.911 95.1151C70.4294 95.1099 69.95 95.0997 69.4729 95.0844L69.4842 94.7325C69.0044 94.7172 68.5269 94.6967 68.052 94.6712L68.0331 95.0228C67.551 94.997 67.0715 94.966 66.5946 94.9299L66.6212 94.5788C66.1428 94.5427 65.6672 94.5014 65.1945 94.4551L65.1602 94.8056C64.6806 94.7586 64.204 94.7065 63.7306 94.6494L63.7728 94.2998C63.2957 94.2423 62.8219 94.1796 62.3516 94.1119L62.3014 94.4605C61.8231 94.3916 61.3482 94.3176 60.8771 94.2385L60.9354 93.8912C60.4618 93.8118 59.9921 93.7271 59.5263 93.6375L59.4597 93.9832C58.9858 93.892 58.516 93.7956 58.0503 93.6942L58.1253 93.3501C57.6564 93.2479 57.1918 93.1406 56.7318 93.0282L56.6482 93.3702C56.1779 93.2553 55.7123 93.1352 55.2517 93.0099L55.3441 92.6701C54.8801 92.5439 54.4212 92.4125 53.9676 92.276L53.8661 92.6132C53.4028 92.4738 52.9449 92.3291 52.4927 92.1793L52.6035 91.845C52.1475 91.6939 51.6973 91.5376 51.2533 91.3761L51.133 91.707C50.6783 91.5417 50.23 91.371 49.7883 91.1951L49.9185 90.868C49.4724 90.6904 49.0331 90.5075 48.6009 90.3194L48.4604 90.6423C48.0154 90.4487 47.5779 90.2497 47.148 90.0453L47.2991 89.7273C46.8644 89.5207 46.4377 89.3088 46.0194 89.0916L45.8572 89.4041C45.4263 89.1804 45.0041 88.9512 44.5908 88.7167L44.7646 88.4105C44.3462 88.173 43.9373 87.9302 43.5381 87.682L43.3522 87.9811C42.9396 87.7246 42.5371 87.4626 42.1453 87.1951L42.3438 86.9043C41.9467 86.6332 41.5607 86.3567 41.1863 86.075L40.9746 86.3563C40.586 86.064 40.2096 85.7659 39.8457 85.4624L40.0712 85.192C39.7024 84.8845 39.3469 84.5715 39.0051 84.2533L38.7652 84.511C38.4092 84.1796 38.0676 83.8424 37.7409 83.4998L37.9957 83.2568C37.6653 82.9103 37.3507 82.5584 37.0522 82.2013L36.782 82.4272C36.4701 82.0539 36.1752 81.6749 35.8982 81.2905L36.1839 81.0846C35.9046 80.6971 35.644 80.3042 35.4026 79.9065L35.1016 80.0892C34.8496 79.674 34.618 79.2533 34.4073 78.8273L34.7229 78.6712C34.5129 78.2466 34.3245 77.8171 34.1582 77.3832L33.8294 77.5092C33.6566 77.0584 33.5071 76.6024 33.3815 76.1419L33.7213 76.0493C33.5979 75.5967 33.4983 75.1397 33.4233 74.6788L33.0757 74.7354C32.9988 74.2626 32.9469 73.7856 32.9209 73.3048L33.2725 73.2858C33.2599 73.0527 33.2536 72.8186 33.2536 72.5837C33.2536 72.3488 33.2599 72.1147 33.2725 71.8816L32.9209 71.8626C32.9469 71.3818 32.9988 70.9048 33.0757 70.4321L33.4233 70.4886C33.4983 70.0277 33.5979 69.5708 33.7213 69.1182L33.3815 69.0255C33.5071 68.565 33.6566 68.1091 33.8294 67.6583L34.1582 67.7842C34.3245 67.3503 34.5129 66.9208 34.7229 66.4962L34.4073 66.3401C34.618 65.9142 34.8496 65.4934 35.1016 65.0782L35.4026 65.2609C35.644 64.8632 35.9046 64.4704 36.1839 64.0828L35.8982 63.8769C36.1752 63.4925 36.47 63.1135 36.782 62.7403L37.0522 62.9661C37.3506 62.6091 37.6653 62.2571 37.9957 61.9106L37.7409 61.6676C38.0676 61.325 38.4092 60.9878 38.7651 60.6564L39.0051 60.9142C39.3469 60.5959 39.7024 60.2829 40.0712 59.9754L39.8456 59.705C40.2096 59.4015 40.586 59.1034 40.9745 58.8111L41.1862 59.0924C41.5607 58.8107 41.9466 58.5342 42.3437 58.2631L42.1452 57.9723C42.5371 57.7048 42.9396 57.4428 43.3522 57.1863L43.5381 57.4854C43.9373 57.2373 44.3462 56.9944 44.7646 56.7569L44.5908 56.4507C45.0041 56.2162 45.4263 55.987 45.8572 55.7633L46.0194 56.0758C46.4377 55.8587 46.8644 55.6467 47.2991 55.4401L47.148 55.1221C47.5779 54.9178 48.0154 54.7187 48.4604 54.5251L48.6009 54.848C49.0331 54.6599 49.4724 54.477 49.9185 54.2994L49.7883 53.9723C50.23 53.7964 50.6783 53.6258 51.133 53.4604L51.2533 53.7913C51.6973 53.6299 52.1475 53.4735 52.6035 53.3224L52.4927 52.9881C52.9449 52.8383 53.4028 52.6936 53.8661 52.5542L53.9676 52.8914C54.4212 52.7549 54.8801 52.6235 55.3441 52.4973L55.2517 52.1575C55.7123 52.0322 56.1779 51.9121 56.6482 51.7972L56.7318 52.1392C57.1918 52.0268 57.6564 51.9195 58.1253 51.8173L58.0503 51.4732C58.516 51.3718 58.9858 51.2754 59.4597 51.1842L59.5263 51.5299C59.9921 51.4403 60.4618 51.3557 60.9354 51.2762L60.8771 50.9289C61.3482 50.8498 61.8231 50.7758 62.3014 50.707L62.3516 51.0555C62.8219 50.9878 63.2957 50.9251 63.7728 50.8676L63.7306 50.518C64.204 50.4609 64.6806 50.4088 65.1602 50.3619L65.1945 50.7123C65.6672 50.666 66.1428 50.6248 66.6212 50.5886L66.5946 50.2375C67.0715 50.2014 67.551 50.1704 68.0331 50.1446L68.052 50.4962C68.5269 50.4707 69.0044 50.4503 69.4842 50.4349L69.4729 50.083C69.95 50.0677 70.4294 50.0575 70.911 50.0523L70.9147 50.4044C71.1539 50.4019 71.3936 50.4006 71.6339 50.4006C71.8741 50.4006 72.1138 50.4019 72.353 50.4044L72.3567 50.0523C72.8383 50.0575 73.3177 50.0677 73.7948 50.083L73.7835 50.4349C74.2633 50.4503 74.7408 50.4707 75.2157 50.4962L75.2346 50.1446C75.7167 50.1704 76.1962 50.2014 76.6731 50.2375L76.6465 50.5886C77.1249 50.6248 77.6005 50.666 78.0732 50.7123L78.1075 50.3619C78.5871 50.4088 79.0637 50.4609 79.5371 50.518L79.4949 50.8676C79.972 50.9251 80.4458 50.9878 80.9161 51.0555L80.9663 50.707C81.4446 50.7758 81.9195 50.8498 82.3906 50.9289L82.3324 51.2762C82.8059 51.3557 83.2756 51.4403 83.7414 51.5299L83.808 51.1842C84.2819 51.2754 84.7518 51.3718 85.2174 51.4732L85.1424 51.8173C85.6113 51.9195 86.0759 52.0268 86.5359 52.1392L86.6195 51.7972C87.0898 51.9121 87.5554 52.0322 88.016 52.1575L87.9236 52.4973C88.3876 52.6235 88.8466 52.7549 89.3002 52.8914L89.4016 52.5542C89.8649 52.6936 90.3228 52.8383 90.775 52.9881L90.6642 53.3224C91.1202 53.4735 91.5704 53.6299 92.0144 53.7913L92.1347 53.4604C92.5894 53.6258 93.0377 53.7964 93.4794 53.9723L93.3492 54.2994C93.7953 54.477 94.2346 54.6599 94.6668 54.848L94.8073 54.5251C95.2523 54.7187 95.6898 54.9178 96.1197 55.1221L95.9686 55.4401C96.4033 55.6467 96.83 55.8587 97.2483 56.0758L97.4105 55.7633C97.8414 55.987 98.2636 56.2162 98.6769 56.4507L98.5031 56.7569C98.9215 56.9944 99.3304 57.2373 99.7296 57.4854L99.9155 57.1863C100.328 57.4428 100.731 57.7048 101.122 57.9723L100.924 58.2631C101.321 58.5342 101.707 58.8107 102.081 59.0924L102.293 58.8111C102.682 59.1034 103.058 59.4015 103.422 59.705L103.197 59.9754C103.565 60.2829 103.921 60.5959 104.263 60.9142L104.503 60.6564C104.859 60.9878 105.2 61.325 105.527 61.6676L105.272 61.9106C105.602 62.2571 105.917 62.609 106.215 62.9661L106.486 62.7403C106.798 63.1135 107.092 63.4925 107.369 63.8769L107.084 64.0828C107.363 64.4704 107.624 64.8632 107.865 65.2609L108.166 65.0782C108.418 65.4934 108.65 65.9141 108.86 66.3401L108.545 66.4962C108.755 66.9208 108.943 67.3503 109.11 67.7842L109.438 67.6582C109.611 68.1091 109.761 68.565 109.886 69.0255L109.546 69.1181C109.67 69.5707 109.769 70.0277 109.844 70.4886L110.192 70.432Z" stroke="#FFF8F8" stroke-width="0.704225" stroke-dasharray="1.41 1.41"/>
<path d="M130.912 46.5274C130.912 55.7601 124.415 64.2298 113.67 70.4238C102.941 76.6089 88.0801 80.453 71.6337 80.453C55.1874 80.453 40.3265 76.6089 29.5973 70.4238C18.8526 64.2298 12.356 55.7601 12.356 46.5274C12.356 37.2946 18.8526 28.8249 29.5973 22.6309C40.3265 16.4458 55.1874 12.6017 71.6337 12.6017C88.0801 12.6017 102.941 16.4458 113.67 22.6309C124.415 28.8249 130.912 37.2946 130.912 46.5274Z" stroke="#FFF8F8" stroke-width="1.16279"/>
<ellipse cx="71.4373" cy="45.5201" rx="25.5814" ry="25" fill="#6FCF97"/>
<circle cx="110.366" cy="17.6541" r="16.9014" fill="#A8CCB0" fill-opacity="0.5"/>
<circle cx="13.8874" cy="47.9358" r="13.3803" fill="#219653" fill-opacity="0.5"/>
<circle cx="99.0986" cy="90.8936" r="9.85916" fill="#812E1B"/>
</svg>
