<svg width="401" height="419" viewBox="0 0 401 419" fill="none" xmlns="http://www.w3.org/2000/svg">
<circle cx="340.447" cy="61.4473" r="40.4752" transform="rotate(34.5762 340.447 61.4473)" fill="black" stroke="#183627" stroke-width="4"/>
<path d="M331.352 79.0437L340.261 38.395C340.334 38.0585 340.191 37.7116 339.901 37.525L336.294 35.202C335.807 34.888 335.156 35.162 335.04 35.7303L325.173 84.0084" stroke="#38A3A5" stroke-width="2.5064" stroke-linecap="round"/>
<path d="M325.384 84.1441L357.039 57.8144C361.136 54.5848 363.127 51.3533 359.044 48.7237C353.939 45.4366 349.533 52.9796 354.318 56.0613C358.147 58.5266 365.803 63.4572 367.079 64.279" stroke="#57CC99" stroke-width="3.00768" stroke-linecap="round"/>
<circle cx="45.1803" cy="227.18" r="33.9819" transform="rotate(-11.2987 45.1803 227.18)" fill="black" stroke="#0D1813" stroke-width="4"/>
<path d="M50.5159 243.09L31.0524 213.698C30.8912 213.454 30.5958 213.337 30.3116 213.403L26.7714 214.226C26.2929 214.338 26.0757 214.895 26.3527 215.301L49.8909 249.775" stroke="#38A3A5" stroke-width="2.12324" stroke-linecap="round"/>
<path d="M50.0977 249.727L52.7572 214.948C53.2097 210.552 52.4188 207.436 48.4113 208.368C43.4019 209.533 45.3899 216.661 50.0862 215.569C53.8433 214.695 61.3573 212.947 62.6096 212.656" stroke="#57CC99" stroke-width="2.54789" stroke-linecap="round"/>
<circle cx="349.785" cy="380.785" r="28.281" transform="rotate(-12.8379 349.785 380.785)" fill="black" stroke="#183627" stroke-width="4"/>
<path d="M354.633 394.048L337.595 369.762C337.454 369.561 337.203 369.469 336.965 369.531L334.006 370.304C333.606 370.408 333.436 370.882 333.678 371.217L354.259 399.686" stroke="#38A3A5" stroke-width="1.78684" stroke-linecap="round"/>
<path d="M354.432 399.641L355.883 370.323C356.164 366.615 355.428 364.011 352.078 364.886C347.89 365.979 349.724 371.931 353.65 370.906C356.791 370.086 363.072 368.446 364.119 368.172" stroke="#57CC99" stroke-width="2.14421" stroke-linecap="round"/>
</svg>
