<svg width="390" height="391" viewBox="0 0 390 391" fill="none" xmlns="http://www.w3.org/2000/svg">
<path fill-rule="evenodd" clip-rule="evenodd" d="M372.208 115.059C351.741 71.7756 314.909 38.8265 268.335 28.3078C178.153 7.94051 93.0396 76.9522 72.5383 167.727C58.2678 230.914 89.6725 287.892 136.247 298.41C140.696 299.415 144.917 300.057 149.567 300.172C123.281 270.228 112.785 224.208 122.969 179.117C139.182 107.327 200.496 62.2481 257.749 75.1786C320.343 89.3152 349.651 161.097 334.778 226.953C323.493 275.537 295.367 320.005 256.772 348.703C223.039 373.821 184.205 385.628 144.827 383.282C144.827 383.282 148.023 384.316 152.176 385.254C256.894 408.904 361.261 342.994 384.912 238.276C394.626 195.262 389.365 152.294 372.208 115.059Z" fill="#183627"/>
<path d="M56.525 158.176L56.5242 158.179C39.0093 223.546 65.4729 296.795 127.825 313.502C184.862 328.785 248.137 285.913 267.234 214.639C279.119 170.285 270.721 124.177 246.084 93.0783C250.239 93.4265 254.068 94.1893 258.087 95.2661C303.859 107.531 332.926 165.367 316.208 227.761C292.174 317.456 204.617 382.79 115.647 358.95C69.6959 346.638 34.3109 312.375 15.6279 268.435C0.00447722 230.649 -3.53923 187.621 7.84474 145.136C35.5588 41.7052 142.184 -19.855 245.615 7.85905C246.766 8.1675 247.841 8.48053 248.793 8.77114C210.843 5.98255 173.037 16.3734 139.498 39.3369C99.6912 66.5521 69.7567 109.972 56.525 158.176Z" fill="#0D1813" stroke="#0D1813"/>
</svg>
