<svg width="306" height="51" viewBox="0 0 306 51" fill="none" xmlns="http://www.w3.org/2000/svg">
<rect x="0.333333" y="13.8333" width="11.3333" height="11.3333" rx="5.66667" stroke="#38A3A5" stroke-width="0.666667"/>
<rect width="15" height="2" transform="translate(12 18.5)" fill="#38A3A5"/>
<rect x="12" y="18.5" width="15" height="2" fill="#38A3A5"/>
<rect width="15" height="2" transform="translate(27 18.5)" fill="#38A3A5"/>
<rect x="27" y="18.5" width="15" height="2" fill="#38A3A5"/>
<rect x="42.3333" y="13.8333" width="11.3333" height="11.3333" rx="5.66667" stroke="#38A3A5" stroke-width="0.666667"/>
<rect width="15" height="2" transform="translate(54 18.5)" fill="#38A3A5"/>
<rect x="54" y="18.5" width="15" height="2" fill="#38A3A5"/>
<rect width="15" height="2" transform="translate(69 18.5)" fill="#38A3A5"/>
<rect x="69" y="18.5" width="15" height="2" fill="#38A3A5"/>
<rect x="84.3333" y="13.8333" width="11.3333" height="11.3333" rx="5.66667" stroke="#38A3A5" stroke-width="0.666667"/>
<rect width="15" height="2" transform="translate(96 18.5)" fill="#38A3A5"/>
<rect x="96" y="18.5" width="15" height="2" fill="#38A3A5"/>
<rect width="15" height="2" transform="translate(111 18.5)" fill="#38A3A5"/>
<rect x="111" y="18.5" width="15" height="2" fill="#38A3A5"/>
<rect x="126" y="18.5" width="13" height="2" fill="#38A3A5"/>
<rect x="139" y="12" width="15" height="15" rx="7.5" fill="#38A3A5"/>
<rect x="154" y="18.5" width="13" height="2" fill="#333333"/>
<rect x="167" y="18.5" width="41.6667" height="2" fill="#333333"/>
<rect x="208.667" y="18.5" width="41.6667" height="2" fill="#333333"/>
<rect x="250.333" y="18.5" width="41.6667" height="2" fill="#333333"/>
<rect x="292.333" y="13.8333" width="11.3333" height="11.3333" rx="5.66667" stroke="#333333" stroke-width="0.666667"/>
<path d="M0.839489 43V42.0455L3.79261 38.9858C4.10795 38.6534 4.3679 38.3622 4.57244 38.1122C4.77983 37.8594 4.93466 37.6193 5.03693 37.392C5.1392 37.1648 5.19034 36.9233 5.19034 36.6676C5.19034 36.3778 5.12216 36.1278 4.9858 35.9176C4.84943 35.7045 4.66335 35.5412 4.42756 35.4276C4.19176 35.3111 3.92614 35.2528 3.63068 35.2528C3.31818 35.2528 3.04545 35.3168 2.8125 35.4446C2.57955 35.5724 2.40057 35.7528 2.27557 35.9858C2.15057 36.2187 2.08807 36.4915 2.08807 36.804H0.830966C0.830966 36.2727 0.953125 35.8082 1.19744 35.4105C1.44176 35.0128 1.77699 34.7045 2.20312 34.4858C2.62926 34.2642 3.11364 34.1534 3.65625 34.1534C4.20455 34.1534 4.6875 34.2628 5.10511 34.4815C5.52557 34.6974 5.85369 34.9929 6.08949 35.3679C6.32528 35.7401 6.44318 36.1605 6.44318 36.6293C6.44318 36.9531 6.3821 37.2699 6.25994 37.5795C6.14063 37.8892 5.93182 38.2344 5.63352 38.6151C5.33523 38.9929 4.92045 39.4517 4.3892 39.9915L2.65483 41.8068V41.8707H6.58381V43H0.839489Z" fill="#919091"/>
<path d="M47.7884 43.1193C47.1776 43.1193 46.6378 43.0142 46.169 42.804C45.7031 42.5937 45.3381 42.304 45.0739 41.9347C44.8097 41.5653 44.679 41.1449 44.6818 40.6733C44.679 40.304 44.7543 39.9645 44.9077 39.6548C45.0639 39.3423 45.2756 39.0824 45.5426 38.875C45.8097 38.6648 46.108 38.5312 46.4375 38.4744V38.4233C46.0028 38.3182 45.6548 38.0852 45.3935 37.7244C45.1321 37.3636 45.0028 36.9489 45.0057 36.4801C45.0028 36.0341 45.1207 35.6364 45.3594 35.2869C45.6009 34.9347 45.9318 34.6577 46.3523 34.456C46.7727 34.2543 47.2514 34.1534 47.7884 34.1534C48.3196 34.1534 48.794 34.2557 49.2116 34.4602C49.6321 34.6619 49.9631 34.9389 50.2045 35.2912C50.446 35.6406 50.5682 36.0369 50.571 36.4801C50.5682 36.9489 50.4347 37.3636 50.1705 37.7244C49.9063 38.0852 49.5625 38.3182 49.1392 38.4233V38.4744C49.4659 38.5312 49.7599 38.6648 50.0213 38.875C50.2855 39.0824 50.4957 39.3423 50.652 39.6548C50.8111 39.9645 50.892 40.304 50.8949 40.6733C50.892 41.1449 50.7585 41.5653 50.4943 41.9347C50.2301 42.304 49.8636 42.5937 49.3949 42.804C48.929 43.0142 48.3935 43.1193 47.7884 43.1193ZM47.7884 42.0412C48.1491 42.0412 48.4616 41.9815 48.7259 41.8622C48.9901 41.7401 49.1946 41.571 49.3395 41.3551C49.4844 41.1364 49.5582 40.8807 49.5611 40.5881C49.5582 40.2841 49.4787 40.0156 49.3224 39.7827C49.169 39.5497 48.9602 39.3665 48.696 39.233C48.4318 39.0994 48.1293 39.0327 47.7884 39.0327C47.4446 39.0327 47.1392 39.0994 46.8722 39.233C46.6051 39.3665 46.3949 39.5497 46.2415 39.7827C46.0881 40.0156 46.0128 40.2841 46.0156 40.5881C46.0128 40.8807 46.0824 41.1364 46.2244 41.3551C46.3693 41.571 46.5753 41.7401 46.8423 41.8622C47.1094 41.9815 47.4247 42.0412 47.7884 42.0412ZM47.7884 37.9801C48.0781 37.9801 48.3352 37.9219 48.5597 37.8054C48.7841 37.6889 48.9602 37.527 49.0881 37.3196C49.2188 37.1122 49.2855 36.8693 49.2884 36.5909C49.2855 36.3182 49.2202 36.0795 49.0923 35.875C48.9673 35.6705 48.7926 35.5128 48.5682 35.402C48.3438 35.2884 48.0838 35.2315 47.7884 35.2315C47.4872 35.2315 47.223 35.2884 46.9957 35.402C46.7713 35.5128 46.5966 35.6705 46.4716 35.875C46.3466 36.0795 46.2855 36.3182 46.2884 36.5909C46.2855 36.8693 46.348 37.1122 46.4759 37.3196C46.6037 37.527 46.7798 37.6889 47.0043 37.8054C47.2315 37.9219 47.4929 37.9801 47.7884 37.9801Z" fill="#919091"/>
<path d="M87.1506 34.2727V43H85.8295V35.5938H85.7784L83.6903 36.9574V35.696L85.8679 34.2727H87.1506ZM92.5582 43.1193C92.169 43.1136 91.7855 43.0426 91.4077 42.9062C91.0327 42.7699 90.6918 42.5426 90.3849 42.2244C90.0781 41.9062 89.8324 41.4787 89.6477 40.9418C89.4659 40.4048 89.375 39.7344 89.375 38.9304C89.375 38.169 89.4503 37.4929 89.6009 36.902C89.7543 36.3111 89.9744 35.8125 90.2614 35.4062C90.5483 34.9972 90.8949 34.6861 91.3011 34.473C91.7074 34.2599 92.1634 34.1534 92.669 34.1534C93.1889 34.1534 93.6506 34.2557 94.054 34.4602C94.4574 34.6648 94.7841 34.9474 95.0341 35.3082C95.2869 35.669 95.4474 36.0795 95.5156 36.5398H94.2159C94.1278 36.1761 93.9531 35.8793 93.6918 35.6491C93.4304 35.419 93.0895 35.304 92.669 35.304C92.0298 35.304 91.5313 35.5824 91.1733 36.1392C90.8182 36.696 90.6392 37.4702 90.6364 38.4616H90.7003C90.8509 38.2145 91.0355 38.0043 91.2543 37.831C91.4759 37.6548 91.723 37.5199 91.9957 37.4261C92.2713 37.3295 92.5611 37.2812 92.8651 37.2812C93.3707 37.2812 93.8281 37.4048 94.2372 37.652C94.6491 37.8963 94.9773 38.2344 95.2216 38.6662C95.4659 39.098 95.5881 39.5923 95.5881 40.1491C95.5881 40.706 95.4616 41.2102 95.2088 41.6619C94.9588 42.1136 94.6065 42.4716 94.152 42.7358C93.6974 42.9972 93.1662 43.125 92.5582 43.1193ZM92.554 42.0114C92.8892 42.0114 93.1889 41.929 93.4531 41.7642C93.7173 41.5994 93.9261 41.3778 94.0795 41.0994C94.233 40.821 94.3097 40.5099 94.3097 40.1662C94.3097 39.831 94.2344 39.5256 94.0838 39.25C93.9361 38.9744 93.7315 38.7557 93.4702 38.5938C93.2116 38.4318 92.9162 38.3509 92.5838 38.3509C92.331 38.3509 92.0966 38.3991 91.8807 38.4957C91.6676 38.5923 91.4801 38.7259 91.3182 38.8963C91.1563 39.0668 91.0284 39.2628 90.9347 39.4844C90.8438 39.7031 90.7983 39.9347 90.7983 40.179C90.7983 40.5057 90.8736 40.8082 91.0241 41.0866C91.1776 41.3651 91.3864 41.5895 91.6506 41.7599C91.9176 41.9276 92.2188 42.0114 92.554 42.0114Z" fill="#919091"/>
<path d="M139.839 43V42.0455L142.793 38.9858C143.108 38.6534 143.368 38.3622 143.572 38.1122C143.78 37.8594 143.935 37.6193 144.037 37.392C144.139 37.1648 144.19 36.9233 144.19 36.6676C144.19 36.3778 144.122 36.1278 143.986 35.9176C143.849 35.7045 143.663 35.5412 143.428 35.4276C143.192 35.3111 142.926 35.2528 142.631 35.2528C142.318 35.2528 142.045 35.3168 141.812 35.4446C141.58 35.5724 141.401 35.7528 141.276 35.9858C141.151 36.2187 141.088 36.4915 141.088 36.804H139.831C139.831 36.2727 139.953 35.8082 140.197 35.4105C140.442 35.0128 140.777 34.7045 141.203 34.4858C141.629 34.2642 142.114 34.1534 142.656 34.1534C143.205 34.1534 143.688 34.2628 144.105 34.4815C144.526 34.6974 144.854 34.9929 145.089 35.3679C145.325 35.7401 145.443 36.1605 145.443 36.6293C145.443 36.9531 145.382 37.2699 145.26 37.5795C145.141 37.8892 144.932 38.2344 144.634 38.6151C144.335 38.9929 143.92 39.4517 143.389 39.9915L141.655 41.8068V41.8707H145.584V43H139.839ZM150.246 43.1193C149.857 43.1136 149.473 43.0426 149.095 42.9062C148.72 42.7699 148.379 42.5426 148.072 42.2244C147.766 41.9062 147.52 41.4787 147.335 40.9418C147.153 40.4048 147.062 39.7344 147.062 38.9304C147.062 38.169 147.138 37.4929 147.288 36.902C147.442 36.3111 147.662 35.8125 147.949 35.4062C148.236 34.9972 148.582 34.6861 148.989 34.473C149.395 34.2599 149.851 34.1534 150.357 34.1534C150.876 34.1534 151.338 34.2557 151.741 34.4602C152.145 34.6648 152.472 34.9474 152.722 35.3082C152.974 35.669 153.135 36.0795 153.203 36.5398H151.903C151.815 36.1761 151.641 35.8793 151.379 35.6491C151.118 35.419 150.777 35.304 150.357 35.304C149.717 35.304 149.219 35.5824 148.861 36.1392C148.506 36.696 148.327 37.4702 148.324 38.4616H148.388C148.538 38.2145 148.723 38.0043 148.942 37.831C149.163 37.6548 149.411 37.5199 149.683 37.4261C149.959 37.3295 150.249 37.2812 150.553 37.2812C151.058 37.2812 151.516 37.4048 151.925 37.652C152.337 37.8963 152.665 38.2344 152.909 38.6662C153.153 39.098 153.276 39.5923 153.276 40.1491C153.276 40.706 153.149 41.2102 152.896 41.6619C152.646 42.1136 152.294 42.4716 151.839 42.7358C151.385 42.9972 150.854 43.125 150.246 43.1193ZM150.241 42.0114C150.577 42.0114 150.876 41.929 151.141 41.7642C151.405 41.5994 151.614 41.3778 151.767 41.0994C151.92 40.821 151.997 40.5099 151.997 40.1662C151.997 39.831 151.922 39.5256 151.771 39.25C151.624 38.9744 151.419 38.7557 151.158 38.5938C150.899 38.4318 150.604 38.3509 150.271 38.3509C150.018 38.3509 149.784 38.3991 149.568 38.4957C149.355 38.5923 149.168 38.7259 149.006 38.8963C148.844 39.0668 148.716 39.2628 148.622 39.4844C148.531 39.7031 148.486 39.9347 148.486 40.179C148.486 40.5057 148.561 40.8082 148.712 41.0866C148.865 41.3651 149.074 41.5895 149.338 41.7599C149.605 41.9276 149.906 42.0114 150.241 42.0114Z" fill="#919091"/>
<path d="M294.72 43.1193C294.186 43.1193 293.706 43.017 293.28 42.8125C292.857 42.6051 292.518 42.321 292.266 41.9602C292.013 41.5994 291.878 41.1875 291.861 40.7244H293.139C293.17 41.0994 293.337 41.4077 293.638 41.6491C293.939 41.8906 294.3 42.0114 294.72 42.0114C295.055 42.0114 295.352 41.9347 295.611 41.7812C295.872 41.625 296.077 41.4105 296.224 41.1378C296.375 40.8651 296.45 40.554 296.45 40.2045C296.45 39.8494 296.374 39.5327 296.22 39.2543C296.067 38.9759 295.855 38.7571 295.585 38.598C295.318 38.4389 295.011 38.358 294.665 38.3551C294.401 38.3551 294.135 38.4006 293.868 38.4915C293.601 38.5824 293.385 38.7017 293.22 38.8494L292.014 38.6705L292.504 34.2727H297.303V35.402H293.599L293.322 37.8438H293.374C293.544 37.679 293.77 37.5412 294.051 37.4304C294.335 37.3196 294.639 37.2642 294.963 37.2642C295.494 37.2642 295.967 37.3906 296.382 37.6435C296.8 37.8963 297.128 38.2415 297.366 38.679C297.608 39.1136 297.727 39.6136 297.724 40.179C297.727 40.7443 297.599 41.2486 297.341 41.6918C297.085 42.1349 296.73 42.4844 296.276 42.7401C295.824 42.9929 295.305 43.1193 294.72 43.1193ZM299.281 43V42.0455L302.234 38.9858C302.549 38.6534 302.809 38.3622 303.014 38.1122C303.221 37.8594 303.376 37.6193 303.478 37.392C303.581 37.1648 303.632 36.9233 303.632 36.6676C303.632 36.3778 303.564 36.1278 303.427 35.9176C303.291 35.7045 303.105 35.5412 302.869 35.4276C302.633 35.3111 302.368 35.2528 302.072 35.2528C301.76 35.2528 301.487 35.3168 301.254 35.4446C301.021 35.5724 300.842 35.7528 300.717 35.9858C300.592 36.2187 300.529 36.4915 300.529 36.804H299.272C299.272 36.2727 299.395 35.8082 299.639 35.4105C299.883 35.0128 300.218 34.7045 300.645 34.4858C301.071 34.2642 301.555 34.1534 302.098 34.1534C302.646 34.1534 303.129 34.2628 303.547 34.4815C303.967 34.6974 304.295 34.9929 304.531 35.3679C304.767 35.7401 304.885 36.1605 304.885 36.6293C304.885 36.9531 304.824 37.2699 304.701 37.5795C304.582 37.8892 304.373 38.2344 304.075 38.6151C303.777 38.9929 303.362 39.4517 302.831 39.9915L301.096 41.8068V41.8707H305.025V43H299.281Z" fill="#919091"/>
</svg>
