<svg width="24" height="24" viewBox="0 0 24 24" fill="none" xmlns="http://www.w3.org/2000/svg">
<rect x="0.214286" y="0.214286" width="23.5714" height="23.5714" rx="11.7857" fill="black"/>
<rect x="0.214286" y="0.214286" width="23.5714" height="23.5714" rx="11.7857" stroke="#333333" stroke-width="0.428571"/>
<path fill-rule="evenodd" clip-rule="evenodd" d="M18.8304 6.8305C17.5313 5.16978 15.6295 4.11175 13.5269 4.11175C9.45544 4.11175 6.46883 7.90193 6.46883 12.0001C6.46883 14.8528 8.37061 16.9957 10.4733 16.9957C10.6742 16.9957 10.8617 16.9823 11.0626 16.9421C9.64294 15.9109 8.74561 14.0359 8.74561 12.0001C8.74561 8.75907 10.942 6.22782 13.5269 6.22782C16.3528 6.22782 18.3081 9.02693 18.3081 12.0001C18.2947 14.1966 17.5179 16.3796 16.1385 17.9867C14.9331 19.393 13.3795 20.2769 11.6653 20.5582C11.6653 20.5582 11.8126 20.5716 12.0001 20.5716C16.7278 20.5716 20.5715 16.7278 20.5715 12.0001C20.5715 10.0582 19.9286 8.26353 18.8304 6.8305ZM17.5313 12.0001C17.5313 9.14746 15.6295 7.0046 13.5269 7.0046C13.326 7.0046 13.1385 7.018 12.9376 7.05818C14.3572 8.08943 15.2545 9.96443 15.2545 12.0001C15.2545 15.2412 13.0581 17.7725 10.4733 17.7725C7.6474 17.7725 5.69204 14.9734 5.69204 12.0001C5.70544 9.80371 6.48222 7.62068 7.86169 6.01353C9.06704 4.60728 10.6206 3.72335 12.3349 3.4421C12.3349 3.4421 12.1876 3.42871 12.0001 3.42871C7.2724 3.42871 3.42865 7.27246 3.42865 12.0001C3.42865 13.9421 4.07151 15.7367 5.16972 17.1698C6.46883 18.8305 8.37061 19.8751 10.4733 19.8751C14.5447 19.8885 17.5313 16.0984 17.5313 12.0001Z" fill="#0089DB"/>
</svg>
