<svg width="56" height="56" viewBox="0 0 56 56" fill="none" xmlns="http://www.w3.org/2000/svg">
<path fill-rule="evenodd" clip-rule="evenodd" d="M20.7367 28.7544L14.4015 35.7311C14.0534 36.1145 14.0926 36.6981 14.4892 37.0346C14.8857 37.3711 15.4893 37.3332 15.8374 36.9498L22.0052 30.1574L20.7367 28.7544ZM23.3932 25.8289L24.6664 27.2268L28.0295 23.523L40.1268 36.9472C40.4734 37.3318 41.0769 37.372 41.4747 37.0369C41.8725 36.7018 41.9141 36.1184 41.5675 35.7338L28.9521 21.7347C28.4667 21.196 27.6015 21.1944 27.114 21.7313L23.3932 25.8289Z" fill="#38A3A5"/>
<path fill-rule="evenodd" clip-rule="evenodd" d="M31.2661 28.7028L27.937 32.369L15.8398 18.9448C15.4932 18.5602 14.8897 18.52 14.4919 18.8551C14.094 19.1902 14.0525 19.7736 14.3991 20.1582L27.0145 34.1573C27.4999 34.696 28.3651 34.6976 28.8526 34.1607L32.5393 30.1007L31.2661 28.7028ZM33.926 25.7735L35.1945 27.1766L41.5651 20.1609C41.9132 19.7775 41.8739 19.1939 41.4774 18.8574C41.0809 18.5209 40.4773 18.5588 40.1292 18.9422L33.926 25.7735Z" fill="#00D7CA"/>
<path d="M27.0498 10.6883C30.7052 8.61075 35.3516 9.85575 37.4785 13.4827L39.4944 16.9203C39.9614 17.7166 40.5456 18.4381 41.2275 19.0605L44.1708 21.747C47.2763 24.5816 47.5281 29.3853 44.7359 32.5289L42.0895 35.5083C41.4764 36.1986 40.9708 36.9772 40.5896 37.818L38.9441 41.4475C37.2079 45.2769 32.7171 47.0007 28.8646 45.3167L25.2131 43.7205C24.3672 43.3507 23.4705 43.1104 22.553 43.0077L18.5927 42.5643C14.4142 42.0965 11.387 38.3582 11.7981 34.1738L12.1878 30.2078C12.2781 29.289 12.2295 28.3619 12.0437 27.4576L11.2416 23.5541C10.3953 19.4356 13.0152 15.4013 17.1219 14.4993L21.0141 13.6443C21.9158 13.4463 22.7826 13.1136 23.5852 12.6574L27.0498 10.6883Z" stroke="#00D7CA" stroke-width="1.50936"/>
<path d="M11.1084 33.4626C8.15553 30.4695 8.15554 25.6592 11.1084 22.666L13.9248 19.8112C14.5731 19.154 15.1188 18.4029 15.5435 17.5832L17.3883 14.0225C19.3225 10.2892 23.8973 8.80273 27.6565 10.6861L31.2419 12.4825C32.0673 12.896 32.9503 13.1829 33.8611 13.3335L37.8176 13.9877C41.9659 14.6735 44.7933 18.5651 44.1637 22.7223L43.5632 26.6873C43.425 27.6001 43.425 28.5285 43.5632 29.4413L44.1637 33.4063C44.7933 37.5635 41.9659 41.4551 37.8176 42.141L33.8611 42.7951C32.9502 42.9457 32.0673 43.2326 31.2419 43.6462L27.6565 45.4425C23.8973 47.3259 19.3225 45.8395 17.3883 42.1062L15.5435 38.5455C15.1188 37.7257 14.5731 36.9747 13.9248 36.3174L11.1084 33.4626Z" stroke="#38A3A5" stroke-width="1.50936"/>
</svg>
