<svg width="68" height="56" viewBox="0 0 68 56" fill="none" xmlns="http://www.w3.org/2000/svg">
<rect x="23.1004" y="11.9" width="43.4" height="43.4" rx="21.7" fill="black"/>
<rect x="23.1004" y="11.9" width="43.4" height="43.4" rx="21.7" stroke="#333333" stroke-width="1.4"/>
<path fill-rule="evenodd" clip-rule="evenodd" d="M57.5503 23.95C55.1253 20.85 51.5753 18.875 47.6503 18.875C40.0503 18.875 34.4753 25.95 34.4753 33.6C34.4753 38.925 38.0253 42.925 41.9503 42.925C42.3253 42.925 42.6753 42.9 43.0503 42.825C40.4003 40.9 38.7253 37.4 38.7253 33.6C38.7253 27.55 42.8253 22.825 47.6503 22.825C52.9253 22.825 56.5753 28.05 56.5753 33.6C56.5503 37.7 55.1003 41.775 52.5253 44.775C50.2753 47.4 47.3753 49.05 44.1753 49.575C44.1753 49.575 44.4503 49.6 44.8003 49.6C53.6253 49.6 60.8003 42.425 60.8003 33.6C60.8003 29.975 59.6003 26.625 57.5503 23.95ZM55.1253 33.6C55.1253 28.275 51.5753 24.275 47.6503 24.275C47.2753 24.275 46.9253 24.3 46.5503 24.375C49.2003 26.3 50.8753 29.8 50.8753 33.6C50.8753 39.65 46.7753 44.375 41.9503 44.375C36.6753 44.375 33.0253 39.15 33.0253 33.6C33.0503 29.5 34.5003 25.425 37.0753 22.425C39.3253 19.8 42.2253 18.15 45.4253 17.625C45.4253 17.625 45.1503 17.6 44.8003 17.6C35.9753 17.6 28.8003 24.775 28.8003 33.6C28.8003 37.225 30.0003 40.575 32.0503 43.25C34.4753 46.35 38.0253 48.3 41.9503 48.3C49.5503 48.325 55.1253 41.25 55.1253 33.6Z" fill="#0089DB"/>
<rect x="0.700488" y="0.7" width="43.4" height="43.4" rx="21.7" fill="#0C0C0C"/>
<rect x="0.700488" y="0.7" width="43.4" height="43.4" rx="21.7" stroke="#333333" stroke-width="1.4"/>
<path fill-rule="evenodd" clip-rule="evenodd" d="M16.5906 23.0031L11.5225 28.5845C11.244 28.8912 11.2754 29.3581 11.5926 29.6273C11.9098 29.8965 12.3927 29.8662 12.6712 29.5595L17.6054 24.1256L16.5906 23.0031ZM18.7158 20.6628L19.7344 21.7811L22.4249 18.8181L32.1027 29.5574C32.38 29.8651 32.8628 29.8972 33.181 29.6292C33.4993 29.3611 33.5325 28.8943 33.2552 28.5866L23.163 17.3874C22.7746 16.9564 22.0825 16.9552 21.6924 17.3847L18.7158 20.6628Z" fill="#38A3A5"/>
<path fill-rule="evenodd" clip-rule="evenodd" d="M25.0141 22.9621L22.3509 25.895L12.6731 15.1557C12.3958 14.848 11.913 14.8159 11.5948 15.084C11.2765 15.352 11.2433 15.8188 11.5206 16.1265L21.6129 27.3257C22.0012 27.7567 22.6934 27.7579 23.0834 27.3284L26.0327 24.0804L25.0141 22.9621ZM27.1421 20.6187L28.1569 21.7411L33.2534 16.1286C33.5318 15.8219 33.5004 15.355 33.1832 15.0858C32.866 14.8166 32.3831 14.8469 32.1046 15.1536L27.1421 20.6187Z" fill="#00D7CA"/>
<path d="M21.6404 8.55046C24.5647 6.88841 28.2819 7.8844 29.9834 10.786L31.5961 13.536C31.9697 14.1731 32.4371 14.7503 32.9826 15.2482L35.3373 17.3974C37.8216 19.6651 38.023 23.508 35.7893 26.0229L33.6722 28.4065C33.1817 28.9587 32.7772 29.5816 32.4722 30.2542L31.1558 33.1578C29.7669 36.2213 26.1743 37.6004 23.0922 36.2531L20.1711 34.9762C19.4944 34.6804 18.777 34.4881 18.043 34.406L14.8747 34.0512C11.532 33.677 9.11018 30.6863 9.43911 27.3388L9.75085 24.166C9.82307 23.431 9.7842 22.6893 9.63555 21.9659L8.99386 18.8431C8.31683 15.5483 10.4127 12.3209 13.6981 11.5992L16.8119 10.9153C17.5332 10.7568 18.2266 10.4907 18.8687 10.1257L21.6404 8.55046Z" stroke="#00D7CA" stroke-width="1.20749"/>
<path d="M8.88692 26.7698C6.52463 24.3753 6.52463 20.5271 8.88692 18.1325L11.14 15.8487C11.6587 15.3229 12.0953 14.7221 12.435 14.0663L13.9108 11.2177C15.4582 8.23108 19.1181 7.04192 22.1254 8.54864L24.9937 9.98572C25.654 10.3166 26.3604 10.5461 27.0891 10.6665L30.2543 11.1899C33.5729 11.7386 35.8348 14.8519 35.3312 18.1776L34.8508 21.3496C34.7402 22.0798 34.7402 22.8226 34.8508 23.5528L35.3312 26.7248C35.8348 30.0505 33.5729 33.1638 30.2543 33.7125L27.0891 34.2359C26.3604 34.3563 25.654 34.5858 24.9937 34.9167L22.1254 36.3538C19.1181 37.8605 15.4582 36.6713 13.9108 33.6847L12.435 30.8361C12.0953 30.1803 11.6587 29.5795 11.14 29.0537L8.88692 26.7698Z" stroke="#38A3A5" stroke-width="1.20749"/>
</svg>
