<svg width="24" height="24" viewBox="0 0 24 24" fill="none" xmlns="http://www.w3.org/2000/svg">
<path d="M23.8974 12C23.8974 5.45798 18.5712 0.153856 12 0.153856C5.42881 0.153856 0.102564 5.45798 0.102564 12C0.102564 18.542 5.42881 23.8462 12 23.8462C18.5712 23.8462 23.8974 18.542 23.8974 12Z" fill="black" stroke="#509D7B" stroke-width="0.205128"/>
<path d="M12.9543 17.3596L8.72732 6.00501C8.69233 5.91101 8.6026 5.84867 8.50229 5.84867L7.25308 5.84867C7.08423 5.84867 6.96811 6.01834 7.02926 6.17574L12.2245 19.5488" stroke="#38A3A5" stroke-width="0.729743" stroke-linecap="round"/>
<path d="M12.2975 19.5489L15.8958 8.11366C16.3895 6.67726 16.3674 5.57245 14.9533 5.57245C13.1857 5.57245 13.2961 8.11345 14.9533 8.11345C16.2791 8.11345 18.9305 8.11345 19.3724 8.11345" stroke="#57CC99" stroke-width="0.875691" stroke-linecap="round"/>
</svg>
