<svg width="20" height="20" viewBox="0 0 20 20" fill="none" xmlns="http://www.w3.org/2000/svg">
<path fill-rule="evenodd" clip-rule="evenodd" d="M17 10C17 13.866 13.866 17 10 17C6.13401 17 3 13.866 3 10C3 6.13401 6.13401 3 10 3C13.866 3 17 6.13401 17 10ZM13.042 14.2794C12.1838 14.8905 11.1339 15.25 10 15.25C7.10051 15.25 4.75 12.8995 4.75 10C4.75 8.86612 5.10946 7.8162 5.72064 6.95797L13.042 14.2794ZM14.2794 13.0419L6.9581 5.72055C7.8163 5.10942 8.86618 4.75 10 4.75C12.8995 4.75 15.25 7.10051 15.25 10C15.25 11.1338 14.8906 12.1837 14.2794 13.0419Z" fill="#812E1B"/>
</svg>
