<svg width="28" height="28" viewBox="0 0 28 28" fill="none" xmlns="http://www.w3.org/2000/svg">
<path d="M9.77667 14L12.5883 16.8233L18.2233 11.1767" stroke="#509D7B" stroke-width="1.75" stroke-linecap="round" stroke-linejoin="round"/>
<path d="M12.5417 2.85835C13.3467 2.17002 14.665 2.17002 15.4817 2.85835L17.325 4.44502C17.675 4.74835 18.3283 4.99335 18.795 4.99335H20.7783C22.015 4.99335 23.03 6.00835 23.03 7.24502V9.22835C23.03 9.68335 23.275 10.3484 23.5783 10.6984L25.165 12.5417C25.8533 13.3467 25.8533 14.665 25.165 15.4817L23.5783 17.325C23.275 17.675 23.03 18.3284 23.03 18.795V20.7784C23.03 22.015 22.015 23.03 20.7783 23.03H18.795C18.34 23.03 17.675 23.275 17.325 23.5784L15.4817 25.165C14.6767 25.8534 13.3583 25.8534 12.5417 25.165L10.6983 23.5784C10.3483 23.275 9.69501 23.03 9.22834 23.03H7.21001C5.97334 23.03 4.95834 22.015 4.95834 20.7784V18.7834C4.95834 18.3284 4.71334 17.675 4.42167 17.325L2.84667 15.47C2.17001 14.665 2.17001 13.3584 2.84667 12.5534L4.42167 10.6984C4.71334 10.3484 4.95834 9.69502 4.95834 9.24002V7.23335C4.95834 5.99669 5.97334 4.98169 7.21001 4.98169H9.22834C9.68334 4.98169 10.3483 4.73669 10.6983 4.43335L12.5417 2.85835Z" stroke="#509D7B" stroke-width="1.75" stroke-linecap="round" stroke-linejoin="round"/>
</svg>
