<svg width="1440" height="589" viewBox="0 0 1440 589" fill="none" xmlns="http://www.w3.org/2000/svg">
<path d="M289.218 648.83L260.486 595.844C239.798 557.694 192.298 543.245 153.872 563.414L100.501 591.426C90.7624 596.537 80.3101 600.152 69.4952 602.151L10.223 613.103C-32.4519 620.989 -60.8719 661.7 -53.5653 704.478L-43.4169 763.893C-41.5652 774.734 -41.3565 785.792 -42.7979 796.695L-50.6973 856.451C-56.3848 899.474 -26.4491 939.083 16.4931 945.353L76.1363 954.062C87.0189 955.651 97.6002 958.869 107.524 963.609L161.914 989.588C201.074 1008.29 247.996 992.061 267.229 953.158L293.942 899.125C298.816 889.266 305.147 880.198 312.722 872.224L354.236 828.524C384.125 797.06 383.189 747.42 352.133 717.107L309 675.004C301.129 667.322 294.461 658.498 289.218 648.83ZM147.59 551.445C192.563 527.841 248.156 544.751 272.368 589.4L301.101 642.387C305.696 650.862 311.542 658.597 318.441 665.331L361.575 707.434C397.921 742.912 399.018 801.009 364.036 837.833L322.521 881.534C315.881 888.523 310.331 896.473 306.059 905.116L279.346 959.149C256.836 1004.68 201.92 1023.68 156.089 1001.78L101.699 975.807C92.999 971.651 83.7232 968.83 74.1834 967.437L14.5401 958.728C-35.7181 951.39 -70.7541 905.032 -64.0976 854.679L-56.1982 794.923C-54.9347 785.366 -55.1176 775.672 -56.7409 766.169L-66.8892 706.754C-75.4407 656.687 -42.1788 609.041 7.76686 599.811L67.039 588.859C76.5195 587.107 85.6822 583.937 94.2188 579.457L147.59 551.445Z" fill="#00D7CA" stroke="#00D7CA" stroke-width="3.18045"/>
<path d="M-17.9641 673.055L-61.9341 714.737C-93.4295 744.593 -95.092 794.214 -65.6656 826.111L-24.5839 870.642C-17.1265 878.725 -10.9289 887.886 -6.19945 897.815L19.8545 952.513C38.5167 991.693 85.1956 1008.61 124.625 990.479L179.671 965.168C189.664 960.574 200.291 957.51 211.195 956.081L271.268 948.205C314.297 942.563 344.808 903.396 339.751 860.294L332.69 800.12C331.408 789.198 331.778 778.144 333.788 767.331L344.861 707.765C352.792 665.099 324.97 623.977 282.415 615.468L223.005 603.589C212.22 601.433 201.822 597.665 192.16 592.412L138.931 563.474C100.803 542.746 53.097 556.499 31.8543 594.342L2.19779 647.174C-3.18562 656.764 -9.98246 665.489 -17.9641 673.055ZM-75.6005 835.276C-110.04 797.945 -108.095 739.869 -71.2333 704.927L-27.2633 663.245C-20.2665 656.613 -14.3082 648.964 -9.58905 640.557L20.0675 587.725C44.9293 543.435 100.764 527.339 145.387 551.598L198.616 580.536C207.086 585.141 216.201 588.444 225.655 590.334L285.066 602.213C334.871 612.172 367.433 660.3 358.15 710.235L347.077 769.801C345.315 779.28 344.991 788.97 346.114 798.545L353.175 858.719C359.095 909.164 323.385 955.004 273.025 961.607L212.953 969.483C203.393 970.736 194.077 973.422 185.318 977.449L130.272 1002.76C84.1247 1023.98 29.4929 1004.18 7.65121 958.326L-18.4027 903.628C-22.5486 894.924 -27.9816 886.893 -34.5188 879.807L-75.6005 835.276Z" fill="#38A3A5" stroke="#38A3A5" stroke-width="3.18045"/>
<path d="M-384.857 467.035C-385.577 411.681 -341.689 366.021 -286.35 364.551L-213.743 362.622C-204.943 362.389 -196.229 360.831 -187.893 358.002L-119.112 334.661C-66.6908 316.871 -9.70322 344.502 8.79544 396.677L33.0668 465.135C36.0084 473.432 40.1826 481.238 45.449 488.292L88.9022 546.493C122.02 590.852 113.352 653.588 69.4467 687.305L11.8398 731.543C4.85809 736.904 -1.27651 743.287 -6.35767 750.475L-48.2825 809.787C-80.2359 854.991 -142.581 866.134 -188.214 834.797L-258.568 786.483L-250.917 775.34L-180.563 823.654C-141.024 850.806 -87.0059 841.152 -59.3203 801.984L-17.3955 742.673C-11.5311 734.376 -4.45083 727.01 3.60724 720.822L61.2141 676.584C99.2555 647.371 106.766 593.014 78.071 554.58L34.6178 496.379C28.5396 488.238 23.722 479.228 20.3269 469.652L-3.94442 401.194C-19.9724 355.987 -69.3485 332.047 -114.769 347.461L-183.549 370.802C-193.17 374.067 -203.228 375.865 -213.384 376.134L-285.991 378.063C-333.939 379.337 -371.965 418.899 -371.341 466.859L-370.231 552.197L-383.747 552.373L-384.857 467.035Z" fill="#38A3A5" stroke="#38A3A5" stroke-width="3.18045"/>
<path d="M-217.556 835.511C-270.837 850.533 -326.3 819.958 -342.043 766.886L-366.408 684.744L-353.449 680.9L-329.084 763.042C-315.444 809.026 -267.388 835.517 -221.224 822.502L-150.995 802.701C-141.217 799.945 -131.079 798.676 -120.922 798.938L-47.9798 800.82C-0.0316187 802.058 40.0133 764.54 41.9004 716.613L44.7712 643.703C45.1709 633.551 47.0971 623.517 50.4849 613.939L74.8155 545.148C90.8092 499.929 67.5027 450.251 22.5046 433.646L-45.9499 408.385C-55.4815 404.868 -64.4291 399.935 -72.4918 393.753L-130.397 349.356C-168.461 320.172 -222.91 326.986 -252.607 364.651L-305.656 431.932L-316.271 423.563L-263.222 356.282C-228.946 312.811 -166.104 304.946 -122.172 338.629L-64.2673 383.027C-57.2815 388.383 -49.529 392.656 -41.2705 395.704L27.1841 420.965C79.1187 440.129 106.018 497.466 87.5588 549.656L63.2282 618.446C60.2929 626.745 58.624 635.439 58.2777 644.235L55.4068 717.145C53.2288 772.46 7.01095 815.761 -48.3285 814.333L-121.271 812.45C-130.071 812.223 -138.855 813.322 -147.327 815.711L-217.556 835.511Z" fill="#A8CCB0" stroke="#A8CCB0" stroke-width="3.18045"/>
<path d="M49.4951 432.181C49.4951 374.362 96.5643 327.483 154.636 327.483C212.708 327.483 259.777 374.362 259.777 432.181C259.777 490.001 212.708 536.88 154.636 536.88C96.5643 536.88 49.4951 490.001 49.4951 432.181Z" fill="#183627" stroke="#00D7CA" stroke-width="2.05134"/>
<path d="M59.227 437.49C59.227 379.67 106.296 332.791 164.368 332.791C222.44 332.791 269.509 379.67 269.509 437.49C269.509 495.309 222.44 542.188 164.368 542.188C106.296 542.188 59.227 495.309 59.227 437.49Z" fill="#0C0C0C" stroke="#00D7CA" stroke-width="2.05134"/>
<path fill-rule="evenodd" clip-rule="evenodd" d="M189.84 440.576L212.059 465.046C213.28 466.39 213.143 468.437 211.752 469.617C210.361 470.798 208.244 470.665 207.023 469.32L185.391 445.497L189.84 440.576ZM180.523 430.316L176.057 435.219L164.262 422.228L121.833 469.311C120.618 470.66 118.501 470.801 117.106 469.625C115.71 468.45 115.565 466.404 116.78 465.055L161.026 415.956C162.729 414.067 165.763 414.061 167.473 415.944L180.523 430.316Z" fill="#38A3A5"/>
<path fill-rule="evenodd" clip-rule="evenodd" d="M152.91 440.396L164.586 453.255L207.015 406.172C208.23 404.823 210.347 404.682 211.742 405.858C213.138 407.033 213.283 409.079 212.068 410.428L167.822 459.527C166.119 461.416 163.085 461.422 161.375 459.539L148.445 445.299L152.91 440.396ZM143.581 430.122L139.132 435.043L116.789 410.437C115.568 409.093 115.705 407.046 117.096 405.866C118.487 404.685 120.604 404.818 121.825 406.163L143.581 430.122Z" fill="#00D7CA"/>
<path d="M167.7 377.214C154.88 369.927 138.583 374.294 131.124 387.015L124.053 399.071C122.415 401.864 120.366 404.395 117.975 406.578L107.652 416C96.7598 425.942 95.8769 442.79 105.67 453.815L114.951 464.265C117.102 466.686 118.875 469.417 120.212 472.366L125.983 485.095C132.073 498.526 147.823 504.572 161.335 498.666L174.142 493.067C177.109 491.771 180.254 490.928 183.472 490.567L197.362 489.012C212.017 487.372 222.634 474.26 221.192 459.584L219.825 445.674C219.509 442.452 219.679 439.2 220.331 436.029L223.144 422.338C226.112 407.893 216.924 393.744 202.52 390.58L188.869 387.582C185.706 386.887 182.667 385.72 179.852 384.12L167.7 377.214Z" stroke="#00D7CA" stroke-width="5.29376"/>
<path d="M223.614 457.09C233.971 446.592 233.971 429.721 223.614 419.223L213.736 409.211C211.462 406.906 209.548 404.271 208.059 401.396L201.589 388.908C194.805 375.814 178.759 370.601 165.575 377.206L153 383.507C150.105 384.957 147.008 385.963 143.814 386.492L129.937 388.786C115.388 391.191 105.471 404.84 107.68 419.421L109.786 433.327C110.27 436.529 110.27 439.785 109.786 442.986L107.68 456.893C105.471 471.473 115.388 485.122 129.937 487.528L143.814 489.822C147.008 490.35 150.105 491.357 153 492.807L165.575 499.107C178.76 505.713 194.805 500.499 201.589 487.406L208.059 474.917C209.548 472.042 211.462 469.408 213.736 467.103L223.614 457.09Z" stroke="#38A3A5" stroke-width="5.29376"/>
<path d="M296.681 260.524C287.466 288.288 257.393 303.297 229.508 294.041C201.623 284.786 186.493 254.773 195.709 227.01C204.924 199.246 234.997 184.238 262.882 193.493C290.767 202.749 305.897 232.761 296.681 260.524Z" fill="#183627" stroke="#00D7CA" stroke-width="1.03785"/>
<path d="M292.854 256.424C283.639 284.188 253.566 299.196 225.681 289.941C197.796 280.686 182.666 250.673 191.881 222.91C201.097 195.146 231.17 180.138 259.055 189.393C286.939 198.649 302.069 228.661 292.854 256.424Z" fill="#0C0C0C" stroke="#00D7CA" stroke-width="1.03785"/>
<path fill-rule="evenodd" clip-rule="evenodd" d="M230.629 234.125L223.86 218.834C223.488 217.994 223.88 217.033 224.736 216.688C225.592 216.343 226.587 216.744 226.959 217.584L233.55 232.471L230.629 234.125ZM233.467 240.537L236.393 238.895L239.987 247.012L267.864 231.166C268.663 230.712 269.701 230.982 270.184 231.769C270.667 232.556 270.411 233.561 269.612 234.015L240.541 250.54C239.422 251.176 237.964 250.695 237.443 249.518L233.467 240.537Z" fill="#38A3A5"/>
<path fill-rule="evenodd" clip-rule="evenodd" d="M248.333 240.098L244.776 232.062L216.899 247.908C216.1 248.362 215.061 248.092 214.579 247.306C214.096 246.519 214.352 245.513 215.151 245.059L244.222 228.535C245.341 227.899 246.799 228.38 247.32 229.557L251.259 238.455L248.333 240.098ZM251.175 246.518L254.096 244.864L260.903 260.24C261.275 261.081 260.883 262.041 260.027 262.387C259.171 262.732 258.176 262.33 257.804 261.49L251.175 246.518Z" fill="#00D7CA"/>
<path d="M231.161 268.079C236.156 273.621 244.677 274.122 250.287 269.203L255.603 264.54C256.835 263.46 258.222 262.571 259.718 261.904L266.177 259.025C272.992 255.988 276.101 248.038 273.156 241.183L270.364 234.686C269.718 233.181 269.301 231.587 269.129 229.958L268.387 222.926C267.604 215.506 261.004 210.092 253.575 210.775L246.533 211.422C244.902 211.572 243.257 211.475 241.654 211.136L234.737 209.668C227.438 208.121 220.251 212.724 218.604 220.001L217.043 226.898C216.682 228.496 216.082 230.03 215.263 231.449L211.73 237.575C208.003 244.038 210.16 252.297 216.572 256.111L222.649 259.727C224.057 260.564 225.331 261.609 226.427 262.826L231.161 268.079Z" stroke="#00D7CA" stroke-width="2.67831"/>
<path d="M217.043 220.813C210.397 224.203 207.708 232.304 211.008 238.996L214.156 245.378C214.88 246.847 215.379 248.417 215.636 250.035L216.753 257.063C217.923 264.431 224.797 269.492 232.181 268.421L239.223 267.4C240.844 267.165 242.492 267.176 244.11 267.431L251.139 268.541C258.508 269.705 265.445 264.732 266.709 257.378L267.914 250.365C268.191 248.751 268.71 247.187 269.453 245.727L272.681 239.385C276.065 232.736 273.479 224.601 266.876 221.128L260.579 217.814C259.129 217.051 257.802 216.075 256.643 214.917L251.609 209.887C246.331 204.614 237.796 204.56 232.451 209.766L227.354 214.732C226.181 215.875 224.842 216.835 223.382 217.579L217.043 220.813Z" stroke="#38A3A5" stroke-width="2.67831"/>
<path d="M111.3 96.6485C117.583 77.7195 138.086 67.4869 157.098 73.7972C176.11 80.1075 186.425 100.57 180.142 119.499C173.859 138.428 153.356 148.66 134.344 142.35C115.332 136.04 105.017 115.578 111.3 96.6485Z" fill="#183627" stroke="#00D7CA" stroke-width="0.707598"/>
<path d="M113.909 99.4441C120.192 80.5151 140.696 70.2824 159.707 76.5927C178.719 82.903 189.034 103.365 182.751 122.294C176.469 141.223 155.965 151.456 136.953 145.145C117.942 138.835 107.626 118.373 113.909 99.4441Z" fill="#0C0C0C" stroke="#00D7CA" stroke-width="0.707598"/>
<path fill-rule="evenodd" clip-rule="evenodd" d="M156.334 114.647L160.949 125.073C161.203 125.646 160.935 126.301 160.352 126.536C159.768 126.771 159.089 126.498 158.836 125.925L154.342 115.775L156.334 114.647ZM154.398 110.276L152.404 111.396L149.954 105.861L130.947 116.665C130.403 116.974 129.694 116.79 129.365 116.254C129.036 115.718 129.211 115.032 129.755 114.722L149.576 103.456C150.339 103.023 151.333 103.351 151.688 104.153L154.398 110.276Z" fill="#38A3A5"/>
<path fill-rule="evenodd" clip-rule="evenodd" d="M144.263 110.576L146.688 116.054L165.695 105.25C166.239 104.941 166.948 105.125 167.277 105.661C167.606 106.198 167.431 106.883 166.887 107.193L147.066 118.459C146.303 118.892 145.309 118.564 144.954 117.762L142.268 111.695L144.263 110.576ZM142.325 106.198L140.334 107.326L135.693 96.8424C135.439 96.2696 135.707 95.6144 136.29 95.3791C136.874 95.1439 137.553 95.4175 137.806 95.9903L142.325 106.198Z" fill="#00D7CA"/>
<path d="M155.971 91.498C152.565 87.7193 146.756 87.378 142.931 90.732L139.306 93.9108C138.467 94.6472 137.521 95.253 136.501 95.7077L132.097 97.6707C127.451 99.7418 125.331 105.162 127.339 109.835L129.242 114.265C129.683 115.291 129.967 116.378 130.084 117.489L130.591 122.283C131.125 127.342 135.624 131.033 140.689 130.567L145.49 130.126C146.603 130.024 147.724 130.09 148.817 130.322L153.533 131.322C158.509 132.377 163.41 129.238 164.532 124.277L165.596 119.575C165.843 118.485 166.252 117.439 166.81 116.472L169.219 112.295C171.76 107.889 170.289 102.258 165.918 99.6575L161.774 97.1924C160.814 96.6213 159.946 95.909 159.198 95.0793L155.971 91.498Z" stroke="#00D7CA" stroke-width="1.82605"/>
<path d="M165.596 123.724C170.127 121.412 171.961 115.889 169.711 111.327L167.565 106.976C167.071 105.974 166.731 104.903 166.556 103.8L165.794 99.0088C164.996 93.985 160.31 90.5347 155.276 91.2646L150.474 91.9607C149.369 92.121 148.246 92.1139 147.143 91.9397L142.35 91.1829C137.326 90.3895 132.596 93.7803 131.735 98.7936L130.913 103.575C130.724 104.676 130.37 105.742 129.863 106.737L127.663 111.061C125.356 115.595 127.119 121.141 131.621 123.509L135.914 125.768C136.903 126.288 137.807 126.954 138.597 127.744L142.03 131.173C145.628 134.768 151.448 134.805 155.091 131.255L158.566 127.87C159.367 127.09 160.279 126.436 161.274 125.928L165.596 123.724Z" stroke="#38A3A5" stroke-width="1.82605"/>
<path d="M1424.36 524.204L1383.86 518.446C1354.7 514.3 1327.62 534.352 1323.08 563.453L1316.77 603.872C1315.62 611.247 1313.36 618.406 1310.08 625.11L1292.09 661.849C1279.14 688.3 1289.84 720.251 1316.11 733.562L1352.6 752.051C1359.26 755.424 1365.37 759.781 1370.73 764.974L1400.12 793.439C1421.27 813.932 1454.96 813.627 1475.74 792.753L1504.6 763.76C1509.87 758.47 1515.9 754.003 1522.5 750.51L1558.65 731.363C1584.67 717.577 1594.8 685.437 1581.36 659.225L1562.71 622.819C1559.31 616.176 1556.92 609.059 1555.64 601.706L1548.6 561.408C1543.53 532.394 1516.09 512.836 1487.01 517.51L1446.62 524.002C1439.25 525.187 1431.75 525.255 1424.36 524.204ZM1314.01 562.039C1319.33 527.98 1351.02 504.511 1385.15 509.364L1425.65 515.122C1432.13 516.043 1438.71 515.983 1445.17 514.945L1485.56 508.453C1519.59 502.983 1551.7 525.873 1557.64 559.83L1564.67 600.127C1565.8 606.573 1567.89 612.812 1570.87 618.635L1589.53 655.042C1605.25 685.72 1593.4 723.335 1562.94 739.47L1526.79 758.617C1521.01 761.679 1515.72 765.595 1511.1 770.232L1482.24 799.225C1457.93 823.655 1418.49 824.013 1393.73 800.027L1364.35 771.563C1359.65 767.01 1354.29 763.191 1348.46 760.234L1311.97 741.746C1281.22 726.167 1268.69 688.772 1283.85 657.814L1301.84 621.075C1304.72 615.199 1306.7 608.923 1307.71 602.458L1314.01 562.039Z" fill="#00D7CA" stroke="#00D7CA" stroke-width="2.15851"/>
<path d="M1313.37 701.451L1318.32 742.272C1321.86 771.511 1348.24 792.478 1377.53 789.332L1418.41 784.941C1425.83 784.143 1433.33 784.468 1440.65 785.904L1481 793.815C1509.91 799.481 1538 780.874 1544.06 752.05L1552.51 711.811C1554.05 704.506 1556.68 697.474 1560.3 690.952L1580.3 655.021C1594.62 629.284 1585.6 596.816 1560.06 582.148L1524.4 561.67C1517.93 557.953 1512.06 553.283 1506.97 547.815L1478.98 517.698C1458.93 496.125 1425.26 494.667 1403.42 514.425L1372.93 542.009C1367.39 547.016 1361.13 551.161 1354.36 554.305L1317.07 571.622C1290.36 584.027 1278.57 615.593 1290.61 642.472L1307.42 679.997C1310.47 686.809 1312.48 694.042 1313.37 701.451ZM1378.51 798.454C1344.23 802.135 1313.36 777.596 1309.21 743.375L1304.27 702.555C1303.48 696.059 1301.72 689.719 1299.05 683.748L1282.23 646.222C1268.14 614.764 1281.94 577.82 1313.21 563.302L1350.5 545.984C1356.43 543.228 1361.92 539.595 1366.77 535.205L1397.27 507.622C1422.83 484.497 1462.23 486.204 1485.7 511.452L1513.69 541.57C1518.15 546.362 1523.3 550.457 1528.97 553.715L1564.63 574.193C1594.52 591.36 1605.07 629.359 1588.31 659.481L1568.32 695.412C1565.14 701.13 1562.84 707.294 1561.49 713.697L1553.03 753.937C1545.95 787.671 1513.07 809.449 1479.24 802.817L1438.89 794.907C1432.47 793.648 1425.89 793.363 1419.39 794.062L1378.51 798.454Z" fill="#38A3A5" stroke="#38A3A5" stroke-width="2.15851"/>
<path d="M1131.48 798.26C1101.01 776.275 1093.87 733.89 1115.44 703.13L1143.74 662.769C1147.17 657.878 1149.84 652.498 1151.67 646.81L1166.75 599.879C1178.25 564.111 1216.35 544.216 1252.27 555.225L1299.4 569.67C1305.12 571.421 1311.06 572.302 1317.03 572.283L1366.33 572.125C1403.9 572.004 1434.59 602.093 1435.22 639.658L1436.05 688.945C1436.15 694.919 1437.15 700.843 1439.01 706.519L1454.39 753.352C1466.12 789.046 1446.99 827.537 1411.46 839.744L1356.68 858.564L1353.7 849.888L1408.48 831.068C1439.26 820.491 1455.84 787.142 1445.68 756.215L1430.3 709.382C1428.14 702.831 1426.99 695.993 1426.88 689.099L1426.05 639.811C1425.5 607.264 1398.91 581.194 1366.36 581.298L1317.06 581.456C1310.17 581.478 1303.31 580.462 1296.71 578.441L1249.58 563.996C1218.46 554.457 1185.45 571.695 1175.49 602.686L1160.41 649.617C1158.3 656.181 1155.21 662.391 1151.25 668.036L1122.95 708.397C1104.26 735.049 1110.45 771.772 1136.85 790.821L1183.82 824.717L1178.45 832.156L1131.48 798.26Z" fill="#38A3A5" stroke="#38A3A5" stroke-width="2.15851"/>
<path d="M1399.98 856.028C1386.63 891.146 1347.54 909.02 1312.25 896.145L1257.62 876.219L1260.76 867.601L1315.39 887.527C1345.97 898.682 1379.84 883.195 1391.41 852.768L1409.01 806.479C1411.46 800.034 1414.86 793.995 1419.11 788.564L1449.63 749.562C1469.69 723.925 1465.43 686.928 1440.06 666.523L1401.48 635.482C1396.1 631.16 1391.41 626.053 1387.56 620.334L1359.9 579.26C1341.71 552.26 1305.21 544.881 1277.97 562.698L1236.52 589.802C1230.75 593.576 1224.44 596.459 1217.82 598.355L1170.2 611.972C1138.91 620.923 1120.61 653.36 1129.13 684.776L1144.36 740.895L1135.51 743.297L1120.28 687.178C1110.44 650.919 1131.56 613.483 1167.68 603.152L1215.29 589.535C1221.04 587.893 1226.5 585.394 1231.5 582.124L1272.95 555.02C1304.39 534.457 1346.52 542.974 1367.51 574.135L1395.17 615.209C1398.51 620.165 1402.57 624.589 1407.23 628.334L1445.81 659.375C1475.09 682.925 1480 725.625 1456.85 755.215L1426.34 794.217C1422.66 798.922 1419.71 804.155 1417.58 809.74L1399.98 856.028Z" fill="#A8CCB0" stroke="#A8CCB0" stroke-width="2.15851"/>
</svg>
