<svg width="64" height="64" viewBox="0 0 64 64" fill="none" xmlns="http://www.w3.org/2000/svg">
<path d="M30.2573 5.64418C36.1517 2.27329 43.6701 4.30035 47.0997 10.1851L50.1479 15.4153C50.8774 16.667 51.7909 17.8018 52.8576 18.7815L57.3856 22.9401C62.3662 27.5144 62.7802 35.2321 58.3161 40.2893L54.2053 44.9463C53.2548 46.023 52.4713 47.2368 51.8809 48.5472L49.3515 54.1609C46.5664 60.342 39.3294 63.1162 33.1178 60.3841L27.594 57.9544C26.2644 57.3696 24.8546 56.9895 23.4126 56.8271L17.4215 56.1521C10.6844 55.3932 5.79553 49.3496 6.45507 42.5955L7.05407 36.4613C7.1939 35.0294 7.11851 33.5841 6.83044 32.1734L5.58447 26.0722C4.23144 19.4466 8.42495 12.9711 15.0114 11.5154L20.9992 10.192C22.4098 9.88027 23.7649 9.35706 25.0186 8.64007L30.2573 5.64418Z" stroke="#57CC99" stroke-width="2"/>
<path d="M5.44543 41.766C0.723296 36.9496 0.723296 29.2403 5.44543 24.424L9.81761 19.9646C10.8267 18.9353 11.6754 17.7603 12.3353 16.4787L15.1436 11.0247C18.256 4.97986 25.6594 2.57417 31.7306 5.63485L37.1264 8.35502C38.4224 9.00835 39.8097 9.46182 41.2414 9.69999L47.2696 10.7029C53.9436 11.8132 58.4916 18.0736 57.4846 24.7639L56.553 30.9539C56.3393 32.3733 56.3393 33.8166 56.553 35.236L57.4846 41.426C58.4916 48.1163 53.9436 54.3767 47.2697 55.487L41.2414 56.4899C39.8097 56.7281 38.4224 57.1816 37.1264 57.8349L31.7306 60.5551C25.6594 63.6157 18.256 61.2101 15.1436 55.1652L12.3353 49.7112C11.6754 48.4297 10.8267 47.2546 9.81761 46.2253L5.44543 41.766Z" stroke="#38A3A5" stroke-width="2"/>
</svg>
