<?xml version="1.0" standalone="no"?><!DOCTYPE svg PUBLIC "-//W3C//DTD SVG 1.1//EN" "http://www.w3.org/Graphics/SVG/1.1/DTD/svg11.dtd"><svg class="icon" width="200px" height="200.00px" viewBox="0 0 1024 1024" version="1.1" xmlns="http://www.w3.org/2000/svg"><path fill="#ffffff" d="M567.192 513.223l209.774-209.774c15.55-15.551 15.55-40.763 0-56.313-15.551-15.55-40.762-15.55-56.313 0L510.879 456.91 301.104 247.136c-15.551-15.55-40.762-15.55-56.313 0-15.55 15.55-15.55 40.763 0 56.313l209.774 209.774-209.774 209.775c-15.55 15.55-15.55 40.763 0 56.313 7.775 7.775 17.966 11.663 28.157 11.663 10.191 0 20.381-3.887 28.157-11.663l209.774-209.774 209.774 209.774c7.776 7.776 17.965 11.663 28.157 11.663 10.189 0 20.382-3.889 28.157-11.663 15.55-15.55 15.55-40.763 0-56.313L567.192 513.223z"  /></svg>