<svg width="16" height="16" viewBox="0 0 16 16" fill="none" xmlns="http://www.w3.org/2000/svg">
<path fill-rule="evenodd" clip-rule="evenodd" d="M13.6 8.00002C13.6 11.0928 11.0928 13.6 8.00002 13.6C4.90723 13.6 2.40002 11.0928 2.40002 8.00002C2.40002 4.90723 4.90723 2.40002 8.00002 2.40002C11.0928 2.40002 13.6 4.90723 13.6 8.00002ZM8.70002 5.20002C8.70002 5.58662 8.38662 5.90002 8.00002 5.90002C7.61343 5.90002 7.30002 5.58662 7.30002 5.20002C7.30002 4.81343 7.61343 4.50002 8.00002 4.50002C8.38662 4.50002 8.70002 4.81343 8.70002 5.20002ZM7.30002 7.30002C6.91342 7.30002 6.60002 7.61343 6.60002 8.00002C6.60002 8.38662 6.91342 8.70002 7.30002 8.70002V10.8C7.30002 11.1866 7.61343 11.5 8.00002 11.5H8.70002C9.08662 11.5 9.40002 11.1866 9.40002 10.8C9.40002 10.4134 9.08662 10.1 8.70002 10.1V8.00002C8.70002 7.61343 8.38662 7.30002 8.00002 7.30002H7.30002Z" fill="#BDBDBD"/>
</svg>
