<?xml version="1.0" standalone="no"?><!DOCTYPE svg PUBLIC "-//W3C//DTD SVG 1.1//EN" "http://www.w3.org/Graphics/SVG/1.1/DTD/svg11.dtd"><svg t="1705462896173" class="icon" viewBox="0 0 1024 1024" version="1.1" xmlns="http://www.w3.org/2000/svg" p-id="7019" xmlns:xlink="http://www.w3.org/1999/xlink" width="200" height="200"><path d="M843.767 756.053c-17.33 18.33-36.902 18.33-54.233 0-17.336-18.33-4.536-48.042 12.8-66.372 91.861-97.135 91.861-254.626 0-351.761-17.336-18.33-30.136-48.043-12.8-66.372 17.331-18.326 36.902-18.326 54.233 0 126.533 133.794 126.533 350.711 0 484.505zM712.23 631.01c-16.524 14.387-34.781 14.387-51.302 0-16.525-14.383-3.725-37.709 12.8-52.096 20.164-17.553 31.019-40.892 30.98-65.233-0.034-24.256-10.88-47.496-30.98-64.998-16.525-14.383-29.325-37.705-12.8-52.092 16.52-14.383 34.778-14.383 51.302 0 36.11 31.432 55.706 73.43 55.77 117 0.064 43.717-19.541 85.88-55.765 117.42zM149.333 381.538v264.53a17.067 17.067 0 0 0 17.067 17.066h120.277l194.616 162.901a5.286 5.286 0 0 0 8.674-4.053v-11.345l0.683-602.368a6.357 6.357 0 0 0-10.65-4.702l-9.724 8.9a51.2 51.2 0 0 1-1.928 1.681l-181.67 150.32H166.4a17.067 17.067 0 0 0-17.067 17.066z m405.334-162.133v593.062c0 47.126-16.87 85.334-64 85.334a85.333 85.333 0 0 1-49.617-15.91L256 727.133H128c-23.565 0-42.667-19.102-42.667-42.667V343.134c0-23.56 19.102-42.667 42.667-42.667h128l185.067-150.502c38.348-27.392 78.848-39.842 106.24-1.494 10.338 14.473 7.36 53.146 7.36 70.934z" p-id="7020" fill="#fff"></path></svg>