<svg width="14" height="14" viewBox="0 0 14 14" fill="none" xmlns="http://www.w3.org/2000/svg">
<g clip-path="url(#clip0_746_444)">
<path d="M7 14C10.866 14 14 10.866 14 7C14 3.13401 10.866 0 7 0C3.13401 0 0 3.13401 0 7C0 10.866 3.13401 14 7 14Z" fill="white"/>
<path d="M2.91333 6.93927C2.91333 6.93927 6.41333 5.50287 7.62719 4.99708C8.09252 4.79478 9.67054 4.14736 9.67054 4.14736C9.67054 4.14736 10.3989 3.86414 10.3382 4.55199C10.3179 4.83524 10.1561 5.82655 9.99425 6.89881C9.75146 8.41616 9.48846 10.0751 9.48846 10.0751C9.48846 10.0751 9.448 10.5404 9.10407 10.6214C8.76015 10.7023 8.19366 10.3381 8.09252 10.2572C8.01157 10.1965 6.57517 9.28609 6.04916 8.841C5.90754 8.71962 5.7457 8.47686 6.06938 8.19361C6.79772 7.52598 7.66765 6.69651 8.19366 6.1705C8.43644 5.92771 8.6792 5.36124 7.66765 6.04909C6.23125 7.04043 4.81506 7.97107 4.81506 7.97107C4.81506 7.97107 4.49136 8.17337 3.88443 7.99128C3.27747 7.80923 2.56938 7.56644 2.56938 7.56644C2.56938 7.56644 2.08386 7.26298 2.91333 6.93927Z" fill="#0C0C0C"/>
</g>
<defs>
<clipPath id="clip0_746_444">
<rect width="14" height="14" fill="white"/>
</clipPath>
</defs>
</svg>
